<svg xmlns="http://www.w3.org/2000/svg" xmlns:xlink="http://www.w3.org/1999/xlink" width="2000" zoomAndPan="magnify" viewBox="0 0 1500 1499.999933" height="2000" preserveAspectRatio="xMidYMid meet" version="1.0"><defs><filter x="0%" y="0%" width="100%" height="100%" id="09de785613"><feColorMatrix values="0 0 0 0 1 0 0 0 0 1 0 0 0 0 1 0 0 0 1 0" color-interpolation-filters="sRGB"/></filter><g/><clipPath id="da88831699"><path d="M 0 0 L 1500 0 L 1500 1500 L 0 1500 Z M 0 0 " clip-rule="nonzero"/></clipPath><radialGradient gradientTransform="matrix(0.999996, -0.000000000000000124, 0.000000000000000124, 1.000004, -1066.999099, 326.111671)" gradientUnits="userSpaceOnUse" r="797.868435" cx="1748.367186" id="2c517ddbd1" cy="335.603684" fx="1748.367186" fy="335.603684"><stop stop-opacity="1" stop-color="rgb(90.663147%, 66.845703%, 31.97937%)" offset="0"/><stop stop-opacity="1" stop-color="rgb(90.809631%, 67.201233%, 32.420349%)" offset="0.00390625"/><stop stop-opacity="1" stop-color="rgb(90.956116%, 67.556763%, 32.861328%)" offset="0.0078125"/><stop stop-opacity="1" stop-color="rgb(91.104126%, 67.912292%, 33.302307%)" offset="0.0117188"/><stop stop-opacity="1" stop-color="rgb(91.25061%, 68.267822%, 33.744812%)" offset="0.015625"/><stop stop-opacity="1" stop-color="rgb(91.397095%, 68.623352%, 34.185791%)" offset="0.0195312"/><stop stop-opacity="1" stop-color="rgb(91.545105%, 68.977356%, 34.62677%)" offset="0.0234375"/><stop stop-opacity="1" stop-color="rgb(91.691589%, 69.332886%, 35.067749%)" offset="0.0273438"/><stop stop-opacity="1" stop-color="rgb(91.838074%, 69.688416%, 35.508728%)" offset="0.03125"/><stop stop-opacity="1" stop-color="rgb(91.986084%, 70.043945%, 35.951233%)" offset="0.0351562"/><stop stop-opacity="1" stop-color="rgb(92.132568%, 70.399475%, 36.392212%)" offset="0.0390625"/><stop stop-opacity="1" stop-color="rgb(92.280579%, 70.755005%, 36.833191%)" offset="0.0429688"/><stop stop-opacity="1" stop-color="rgb(92.427063%, 71.110535%, 37.27417%)" offset="0.046875"/><stop stop-opacity="1" stop-color="rgb(92.573547%, 71.466064%, 37.715149%)" offset="0.0507812"/><stop stop-opacity="1" stop-color="rgb(92.721558%, 71.820068%, 38.156128%)" offset="0.0546875"/><stop stop-opacity="1" stop-color="rgb(92.868042%, 72.175598%, 38.598633%)" offset="0.0585938"/><stop stop-opacity="1" stop-color="rgb(93.014526%, 72.531128%, 39.039612%)" offset="0.0625"/><stop stop-opacity="1" stop-color="rgb(93.162537%, 72.886658%, 39.480591%)" offset="0.0664062"/><stop stop-opacity="1" stop-color="rgb(93.309021%, 73.242188%, 39.92157%)" offset="0.0703125"/><stop stop-opacity="1" stop-color="rgb(93.455505%, 73.597717%, 40.362549%)" offset="0.0742188"/><stop stop-opacity="1" stop-color="rgb(93.603516%, 73.953247%, 40.803528%)" offset="0.078125"/><stop stop-opacity="1" stop-color="rgb(93.75%, 74.307251%, 41.246033%)" offset="0.0820312"/><stop stop-opacity="1" stop-color="rgb(93.896484%, 74.662781%, 41.687012%)" offset="0.0859375"/><stop stop-opacity="1" stop-color="rgb(94.044495%, 75.018311%, 42.127991%)" offset="0.0898438"/><stop stop-opacity="1" stop-color="rgb(94.190979%, 75.37384%, 42.56897%)" offset="0.09375"/><stop stop-opacity="1" stop-color="rgb(94.338989%, 75.72937%, 43.009949%)" offset="0.0976562"/><stop stop-opacity="1" stop-color="rgb(94.485474%, 76.0849%, 43.452454%)" offset="0.101562"/><stop stop-opacity="1" stop-color="rgb(94.631958%, 76.44043%, 43.893433%)" offset="0.105469"/><stop stop-opacity="1" stop-color="rgb(94.779968%, 76.794434%, 44.334412%)" offset="0.109375"/><stop stop-opacity="1" stop-color="rgb(94.926453%, 77.149963%, 44.775391%)" offset="0.113281"/><stop stop-opacity="1" stop-color="rgb(95.072937%, 77.505493%, 45.21637%)" offset="0.117188"/><stop stop-opacity="1" stop-color="rgb(95.220947%, 77.861023%, 45.657349%)" offset="0.121094"/><stop stop-opacity="1" stop-color="rgb(95.367432%, 78.216553%, 46.099854%)" offset="0.125"/><stop stop-opacity="1" stop-color="rgb(95.513916%, 78.572083%, 46.540833%)" offset="0.128906"/><stop stop-opacity="1" stop-color="rgb(95.661926%, 78.927612%, 46.981812%)" offset="0.132812"/><stop stop-opacity="1" stop-color="rgb(95.808411%, 79.281616%, 47.422791%)" offset="0.136719"/><stop stop-opacity="1" stop-color="rgb(95.954895%, 79.637146%, 47.86377%)" offset="0.140625"/><stop stop-opacity="1" stop-color="rgb(96.102905%, 79.992676%, 48.304749%)" offset="0.144531"/><stop stop-opacity="1" stop-color="rgb(96.24939%, 80.348206%, 48.747253%)" offset="0.148438"/><stop stop-opacity="1" stop-color="rgb(96.3974%, 80.703735%, 49.188232%)" offset="0.152344"/><stop stop-opacity="1" stop-color="rgb(96.543884%, 81.059265%, 49.629211%)" offset="0.15625"/><stop stop-opacity="1" stop-color="rgb(96.690369%, 81.414795%, 50.07019%)" offset="0.160156"/><stop stop-opacity="1" stop-color="rgb(96.838379%, 81.768799%, 50.511169%)" offset="0.164062"/><stop stop-opacity="1" stop-color="rgb(96.984863%, 82.124329%, 50.953674%)" offset="0.167969"/><stop stop-opacity="1" stop-color="rgb(97.131348%, 82.479858%, 51.394653%)" offset="0.171875"/><stop stop-opacity="1" stop-color="rgb(97.279358%, 82.835388%, 51.835632%)" offset="0.175781"/><stop stop-opacity="1" stop-color="rgb(97.425842%, 83.190918%, 52.276611%)" offset="0.179688"/><stop stop-opacity="1" stop-color="rgb(97.572327%, 83.546448%, 52.71759%)" offset="0.183594"/><stop stop-opacity="1" stop-color="rgb(97.720337%, 83.901978%, 53.158569%)" offset="0.1875"/><stop stop-opacity="1" stop-color="rgb(97.866821%, 84.255981%, 53.601074%)" offset="0.191406"/><stop stop-opacity="1" stop-color="rgb(98.013306%, 84.611511%, 54.042053%)" offset="0.195312"/><stop stop-opacity="1" stop-color="rgb(98.161316%, 84.967041%, 54.483032%)" offset="0.199219"/><stop stop-opacity="1" stop-color="rgb(98.3078%, 85.322571%, 54.924011%)" offset="0.203125"/><stop stop-opacity="1" stop-color="rgb(98.455811%, 85.678101%, 55.36499%)" offset="0.207031"/><stop stop-opacity="1" stop-color="rgb(98.602295%, 86.03363%, 55.807495%)" offset="0.210938"/><stop stop-opacity="1" stop-color="rgb(98.748779%, 86.38916%, 56.248474%)" offset="0.214844"/><stop stop-opacity="1" stop-color="rgb(98.89679%, 86.743164%, 56.689453%)" offset="0.21875"/><stop stop-opacity="1" stop-color="rgb(99.043274%, 87.098694%, 57.130432%)" offset="0.222656"/><stop stop-opacity="1" stop-color="rgb(99.189758%, 87.454224%, 57.571411%)" offset="0.226562"/><stop stop-opacity="1" stop-color="rgb(99.337769%, 87.809753%, 58.01239%)" offset="0.230469"/><stop stop-opacity="1" stop-color="rgb(99.484253%, 88.165283%, 58.454895%)" offset="0.234375"/><stop stop-opacity="1" stop-color="rgb(99.630737%, 88.520813%, 58.895874%)" offset="0.238281"/><stop stop-opacity="1" stop-color="rgb(99.778748%, 88.876343%, 59.336853%)" offset="0.242188"/><stop stop-opacity="1" stop-color="rgb(99.925232%, 89.230347%, 59.777832%)" offset="0.246094"/><stop stop-opacity="1" stop-color="rgb(100%, 89.26239%, 60.054016%)" offset="0.25"/><stop stop-opacity="1" stop-color="rgb(100%, 89.016724%, 60.145569%)" offset="0.261719"/><stop stop-opacity="1" stop-color="rgb(100%, 88.821411%, 60.218811%)" offset="0.269531"/><stop stop-opacity="1" stop-color="rgb(100%, 88.624573%, 60.293579%)" offset="0.277344"/><stop stop-opacity="1" stop-color="rgb(100%, 88.42926%, 60.366821%)" offset="0.285156"/><stop stop-opacity="1" stop-color="rgb(100%, 88.233948%, 60.440063%)" offset="0.292969"/><stop stop-opacity="1" stop-color="rgb(100%, 88.037109%, 60.513306%)" offset="0.300781"/><stop stop-opacity="1" stop-color="rgb(100%, 87.841797%, 60.586548%)" offset="0.308594"/><stop stop-opacity="1" stop-color="rgb(100%, 87.644958%, 60.65979%)" offset="0.316406"/><stop stop-opacity="1" stop-color="rgb(100%, 87.449646%, 60.733032%)" offset="0.324219"/><stop stop-opacity="1" stop-color="rgb(100%, 87.254333%, 60.806274%)" offset="0.332031"/><stop stop-opacity="1" stop-color="rgb(100%, 87.057495%, 60.881042%)" offset="0.339844"/><stop stop-opacity="1" stop-color="rgb(100%, 86.862183%, 60.954285%)" offset="0.347656"/><stop stop-opacity="1" stop-color="rgb(100%, 86.665344%, 61.027527%)" offset="0.355469"/><stop stop-opacity="1" stop-color="rgb(100%, 86.470032%, 61.100769%)" offset="0.363281"/><stop stop-opacity="1" stop-color="rgb(100%, 86.273193%, 61.174011%)" offset="0.371094"/><stop stop-opacity="1" stop-color="rgb(100%, 85.980225%, 61.283875%)" offset="0.378906"/><stop stop-opacity="1" stop-color="rgb(100%, 85.68573%, 61.393738%)" offset="0.394531"/><stop stop-opacity="1" stop-color="rgb(100%, 85.490417%, 61.468506%)" offset="0.402344"/><stop stop-opacity="1" stop-color="rgb(100%, 85.293579%, 61.541748%)" offset="0.410156"/><stop stop-opacity="1" stop-color="rgb(100%, 85.00061%, 61.651611%)" offset="0.417969"/><stop stop-opacity="1" stop-color="rgb(100%, 84.706116%, 61.761475%)" offset="0.433594"/><stop stop-opacity="1" stop-color="rgb(100%, 84.510803%, 61.834717%)" offset="0.441406"/><stop stop-opacity="1" stop-color="rgb(100%, 84.313965%, 61.907959%)" offset="0.449219"/><stop stop-opacity="1" stop-color="rgb(100%, 84.020996%, 62.017822%)" offset="0.457031"/><stop stop-opacity="1" stop-color="rgb(100%, 83.726501%, 62.129211%)" offset="0.472656"/><stop stop-opacity="1" stop-color="rgb(100%, 83.531189%, 62.202454%)" offset="0.480469"/><stop stop-opacity="1" stop-color="rgb(100%, 83.334351%, 62.275696%)" offset="0.488281"/><stop stop-opacity="1" stop-color="rgb(100%, 83.187866%, 62.330627%)" offset="0.496094"/><stop stop-opacity="1" stop-color="rgb(99.925232%, 83.009338%, 62.109375%)" offset="0.5"/><stop stop-opacity="1" stop-color="rgb(99.778748%, 82.752991%, 61.631775%)" offset="0.503906"/><stop stop-opacity="1" stop-color="rgb(99.630737%, 82.495117%, 61.154175%)" offset="0.507812"/><stop stop-opacity="1" stop-color="rgb(99.484253%, 82.23877%, 60.675049%)" offset="0.511719"/><stop stop-opacity="1" stop-color="rgb(99.337769%, 81.980896%, 60.197449%)" offset="0.515625"/><stop stop-opacity="1" stop-color="rgb(99.189758%, 81.723022%, 59.719849%)" offset="0.519531"/><stop stop-opacity="1" stop-color="rgb(99.043274%, 81.466675%, 59.242249%)" offset="0.523438"/><stop stop-opacity="1" stop-color="rgb(98.89679%, 81.208801%, 58.764648%)" offset="0.527344"/><stop stop-opacity="1" stop-color="rgb(98.748779%, 80.950928%, 58.285522%)" offset="0.53125"/><stop stop-opacity="1" stop-color="rgb(98.602295%, 80.69458%, 57.807922%)" offset="0.535156"/><stop stop-opacity="1" stop-color="rgb(98.455811%, 80.436707%, 57.330322%)" offset="0.539062"/><stop stop-opacity="1" stop-color="rgb(98.3078%, 80.178833%, 56.852722%)" offset="0.542969"/><stop stop-opacity="1" stop-color="rgb(98.161316%, 79.922485%, 56.373596%)" offset="0.546875"/><stop stop-opacity="1" stop-color="rgb(98.013306%, 79.664612%, 55.895996%)" offset="0.550781"/><stop stop-opacity="1" stop-color="rgb(97.866821%, 79.406738%, 55.418396%)" offset="0.554688"/><stop stop-opacity="1" stop-color="rgb(97.720337%, 79.150391%, 54.940796%)" offset="0.558594"/><stop stop-opacity="1" stop-color="rgb(97.572327%, 78.892517%, 54.46167%)" offset="0.5625"/><stop stop-opacity="1" stop-color="rgb(97.425842%, 78.634644%, 53.98407%)" offset="0.566406"/><stop stop-opacity="1" stop-color="rgb(97.279358%, 78.378296%, 53.50647%)" offset="0.570312"/><stop stop-opacity="1" stop-color="rgb(97.131348%, 78.120422%, 53.02887%)" offset="0.574219"/><stop stop-opacity="1" stop-color="rgb(96.984863%, 77.862549%, 52.549744%)" offset="0.578125"/><stop stop-opacity="1" stop-color="rgb(96.838379%, 77.606201%, 52.072144%)" offset="0.582031"/><stop stop-opacity="1" stop-color="rgb(96.690369%, 77.348328%, 51.594543%)" offset="0.585938"/><stop stop-opacity="1" stop-color="rgb(96.543884%, 77.090454%, 51.116943%)" offset="0.589844"/><stop stop-opacity="1" stop-color="rgb(96.3974%, 76.834106%, 50.637817%)" offset="0.59375"/><stop stop-opacity="1" stop-color="rgb(96.24939%, 76.576233%, 50.160217%)" offset="0.597656"/><stop stop-opacity="1" stop-color="rgb(96.102905%, 76.319885%, 49.682617%)" offset="0.601562"/><stop stop-opacity="1" stop-color="rgb(95.954895%, 76.062012%, 49.205017%)" offset="0.605469"/><stop stop-opacity="1" stop-color="rgb(95.808411%, 75.804138%, 48.725891%)" offset="0.609375"/><stop stop-opacity="1" stop-color="rgb(95.661926%, 75.547791%, 48.248291%)" offset="0.613281"/><stop stop-opacity="1" stop-color="rgb(95.513916%, 75.289917%, 47.770691%)" offset="0.617188"/><stop stop-opacity="1" stop-color="rgb(95.367432%, 75.032043%, 47.293091%)" offset="0.621094"/><stop stop-opacity="1" stop-color="rgb(95.220947%, 74.775696%, 46.813965%)" offset="0.625"/><stop stop-opacity="1" stop-color="rgb(95.072937%, 74.517822%, 46.336365%)" offset="0.628906"/><stop stop-opacity="1" stop-color="rgb(94.926453%, 74.259949%, 45.858765%)" offset="0.632812"/><stop stop-opacity="1" stop-color="rgb(94.779968%, 74.003601%, 45.381165%)" offset="0.636719"/><stop stop-opacity="1" stop-color="rgb(94.631958%, 73.745728%, 44.902039%)" offset="0.640625"/><stop stop-opacity="1" stop-color="rgb(94.485474%, 73.487854%, 44.424438%)" offset="0.644531"/><stop stop-opacity="1" stop-color="rgb(94.338989%, 73.231506%, 43.946838%)" offset="0.648438"/><stop stop-opacity="1" stop-color="rgb(94.190979%, 72.973633%, 43.469238%)" offset="0.652344"/><stop stop-opacity="1" stop-color="rgb(94.044495%, 72.715759%, 42.991638%)" offset="0.65625"/><stop stop-opacity="1" stop-color="rgb(93.896484%, 72.459412%, 42.512512%)" offset="0.660156"/><stop stop-opacity="1" stop-color="rgb(93.75%, 72.201538%, 42.034912%)" offset="0.664062"/><stop stop-opacity="1" stop-color="rgb(93.603516%, 71.943665%, 41.557312%)" offset="0.667969"/><stop stop-opacity="1" stop-color="rgb(93.455505%, 71.687317%, 41.079712%)" offset="0.671875"/><stop stop-opacity="1" stop-color="rgb(93.309021%, 71.429443%, 40.600586%)" offset="0.675781"/><stop stop-opacity="1" stop-color="rgb(93.162537%, 71.17157%, 40.122986%)" offset="0.679688"/><stop stop-opacity="1" stop-color="rgb(93.014526%, 70.915222%, 39.645386%)" offset="0.683594"/><stop stop-opacity="1" stop-color="rgb(92.868042%, 70.657349%, 39.167786%)" offset="0.6875"/><stop stop-opacity="1" stop-color="rgb(92.721558%, 70.399475%, 38.68866%)" offset="0.691406"/><stop stop-opacity="1" stop-color="rgb(92.573547%, 70.143127%, 38.21106%)" offset="0.695312"/><stop stop-opacity="1" stop-color="rgb(92.427063%, 69.885254%, 37.733459%)" offset="0.699219"/><stop stop-opacity="1" stop-color="rgb(92.280579%, 69.628906%, 37.255859%)" offset="0.703125"/><stop stop-opacity="1" stop-color="rgb(92.132568%, 69.371033%, 36.776733%)" offset="0.707031"/><stop stop-opacity="1" stop-color="rgb(91.986084%, 69.113159%, 36.299133%)" offset="0.710938"/><stop stop-opacity="1" stop-color="rgb(91.838074%, 68.856812%, 35.821533%)" offset="0.714844"/><stop stop-opacity="1" stop-color="rgb(91.691589%, 68.598938%, 35.343933%)" offset="0.71875"/><stop stop-opacity="1" stop-color="rgb(91.545105%, 68.341064%, 34.864807%)" offset="0.722656"/><stop stop-opacity="1" stop-color="rgb(91.397095%, 68.084717%, 34.387207%)" offset="0.726562"/><stop stop-opacity="1" stop-color="rgb(91.25061%, 67.826843%, 33.909607%)" offset="0.730469"/><stop stop-opacity="1" stop-color="rgb(91.104126%, 67.56897%, 33.432007%)" offset="0.734375"/><stop stop-opacity="1" stop-color="rgb(90.956116%, 67.312622%, 32.952881%)" offset="0.738281"/><stop stop-opacity="1" stop-color="rgb(90.809631%, 67.054749%, 32.475281%)" offset="0.742188"/><stop stop-opacity="1" stop-color="rgb(90.663147%, 66.796875%, 31.997681%)" offset="0.746094"/><stop stop-opacity="1" stop-color="rgb(90.408325%, 66.546631%, 31.660461%)" offset="0.75"/><stop stop-opacity="1" stop-color="rgb(90.046692%, 66.300964%, 31.465149%)" offset="0.753906"/><stop stop-opacity="1" stop-color="rgb(89.685059%, 66.055298%, 31.269836%)" offset="0.757812"/><stop stop-opacity="1" stop-color="rgb(89.323425%, 65.811157%, 31.072998%)" offset="0.761719"/><stop stop-opacity="1" stop-color="rgb(88.961792%, 65.565491%, 30.877686%)" offset="0.765625"/><stop stop-opacity="1" stop-color="rgb(88.600159%, 65.319824%, 30.680847%)" offset="0.769531"/><stop stop-opacity="1" stop-color="rgb(88.238525%, 65.075684%, 30.485535%)" offset="0.773438"/><stop stop-opacity="1" stop-color="rgb(87.876892%, 64.830017%, 30.288696%)" offset="0.777344"/><stop stop-opacity="1" stop-color="rgb(87.515259%, 64.584351%, 30.093384%)" offset="0.78125"/><stop stop-opacity="1" stop-color="rgb(87.153625%, 64.34021%, 29.898071%)" offset="0.785156"/><stop stop-opacity="1" stop-color="rgb(86.791992%, 64.094543%, 29.701233%)" offset="0.789062"/><stop stop-opacity="1" stop-color="rgb(86.430359%, 63.848877%, 29.50592%)" offset="0.792969"/><stop stop-opacity="1" stop-color="rgb(86.068726%, 63.604736%, 29.309082%)" offset="0.796875"/><stop stop-opacity="1" stop-color="rgb(85.707092%, 63.35907%, 29.11377%)" offset="0.800781"/><stop stop-opacity="1" stop-color="rgb(85.345459%, 63.113403%, 28.918457%)" offset="0.804688"/><stop stop-opacity="1" stop-color="rgb(84.983826%, 62.869263%, 28.721619%)" offset="0.808594"/><stop stop-opacity="1" stop-color="rgb(84.622192%, 62.623596%, 28.526306%)" offset="0.8125"/><stop stop-opacity="1" stop-color="rgb(84.260559%, 62.37793%, 28.329468%)" offset="0.816406"/><stop stop-opacity="1" stop-color="rgb(83.898926%, 62.133789%, 28.134155%)" offset="0.820312"/><stop stop-opacity="1" stop-color="rgb(83.537292%, 61.888123%, 27.938843%)" offset="0.824219"/><stop stop-opacity="1" stop-color="rgb(83.177185%, 61.642456%, 27.742004%)" offset="0.828125"/><stop stop-opacity="1" stop-color="rgb(82.815552%, 61.398315%, 27.546692%)" offset="0.832031"/><stop stop-opacity="1" stop-color="rgb(82.453918%, 61.152649%, 27.349854%)" offset="0.835938"/><stop stop-opacity="1" stop-color="rgb(82.092285%, 60.906982%, 27.154541%)" offset="0.839844"/><stop stop-opacity="1" stop-color="rgb(81.730652%, 60.662842%, 26.957703%)" offset="0.84375"/><stop stop-opacity="1" stop-color="rgb(81.369019%, 60.417175%, 26.76239%)" offset="0.847656"/><stop stop-opacity="1" stop-color="rgb(81.007385%, 60.171509%, 26.567078%)" offset="0.851562"/><stop stop-opacity="1" stop-color="rgb(80.645752%, 59.927368%, 26.370239%)" offset="0.855469"/><stop stop-opacity="1" stop-color="rgb(80.284119%, 59.681702%, 26.174927%)" offset="0.859375"/><stop stop-opacity="1" stop-color="rgb(79.922485%, 59.436035%, 25.978088%)" offset="0.863281"/><stop stop-opacity="1" stop-color="rgb(79.560852%, 59.191895%, 25.782776%)" offset="0.867188"/><stop stop-opacity="1" stop-color="rgb(79.199219%, 58.946228%, 25.587463%)" offset="0.871094"/><stop stop-opacity="1" stop-color="rgb(78.837585%, 58.700562%, 25.390625%)" offset="0.875"/><stop stop-opacity="1" stop-color="rgb(78.475952%, 58.456421%, 25.195312%)" offset="0.878906"/><stop stop-opacity="1" stop-color="rgb(78.114319%, 58.210754%, 24.998474%)" offset="0.882812"/><stop stop-opacity="1" stop-color="rgb(77.752686%, 57.965088%, 24.803162%)" offset="0.886719"/><stop stop-opacity="1" stop-color="rgb(77.391052%, 57.720947%, 24.607849%)" offset="0.890625"/><stop stop-opacity="1" stop-color="rgb(77.029419%, 57.475281%, 24.411011%)" offset="0.894531"/><stop stop-opacity="1" stop-color="rgb(76.667786%, 57.229614%, 24.215698%)" offset="0.898438"/><stop stop-opacity="1" stop-color="rgb(76.306152%, 56.985474%, 24.01886%)" offset="0.902344"/><stop stop-opacity="1" stop-color="rgb(75.944519%, 56.739807%, 23.823547%)" offset="0.90625"/><stop stop-opacity="1" stop-color="rgb(75.584412%, 56.494141%, 23.628235%)" offset="0.910156"/><stop stop-opacity="1" stop-color="rgb(75.222778%, 56.25%, 23.431396%)" offset="0.914062"/><stop stop-opacity="1" stop-color="rgb(74.861145%, 56.004333%, 23.236084%)" offset="0.917969"/><stop stop-opacity="1" stop-color="rgb(74.499512%, 55.758667%, 23.039246%)" offset="0.921875"/><stop stop-opacity="1" stop-color="rgb(74.137878%, 55.514526%, 22.843933%)" offset="0.925781"/><stop stop-opacity="1" stop-color="rgb(73.776245%, 55.26886%, 22.647095%)" offset="0.929688"/><stop stop-opacity="1" stop-color="rgb(73.414612%, 55.023193%, 22.451782%)" offset="0.933594"/><stop stop-opacity="1" stop-color="rgb(73.052979%, 54.779053%, 22.25647%)" offset="0.9375"/><stop stop-opacity="1" stop-color="rgb(72.691345%, 54.533386%, 22.059631%)" offset="0.941406"/><stop stop-opacity="1" stop-color="rgb(72.329712%, 54.28772%, 21.864319%)" offset="0.945312"/><stop stop-opacity="1" stop-color="rgb(71.968079%, 54.043579%, 21.66748%)" offset="0.949219"/><stop stop-opacity="1" stop-color="rgb(71.606445%, 53.797913%, 21.472168%)" offset="0.953125"/><stop stop-opacity="1" stop-color="rgb(71.244812%, 53.552246%, 21.276855%)" offset="0.957031"/><stop stop-opacity="1" stop-color="rgb(70.883179%, 53.308105%, 21.080017%)" offset="0.960938"/><stop stop-opacity="1" stop-color="rgb(70.521545%, 53.062439%, 20.884705%)" offset="0.964844"/><stop stop-opacity="1" stop-color="rgb(70.159912%, 52.816772%, 20.687866%)" offset="0.96875"/><stop stop-opacity="1" stop-color="rgb(69.798279%, 52.572632%, 20.492554%)" offset="0.972656"/><stop stop-opacity="1" stop-color="rgb(69.436646%, 52.326965%, 20.297241%)" offset="0.976562"/><stop stop-opacity="1" stop-color="rgb(69.075012%, 52.081299%, 20.100403%)" offset="0.980469"/><stop stop-opacity="1" stop-color="rgb(68.713379%, 51.837158%, 19.90509%)" offset="0.984375"/><stop stop-opacity="1" stop-color="rgb(68.351746%, 51.591492%, 19.708252%)" offset="0.988281"/><stop stop-opacity="1" stop-color="rgb(67.990112%, 51.345825%, 19.512939%)" offset="0.992188"/><stop stop-opacity="1" stop-color="rgb(67.630005%, 51.101685%, 19.317627%)" offset="0.996094"/><stop stop-opacity="1" stop-color="rgb(67.449951%, 50.979614%, 19.219971%)" offset="1"/></radialGradient><clipPath id="c67f02fa77"><rect x="0" width="1500" y="0" height="1500"/></clipPath><clipPath id="21ccfd0be5"><rect x="0" width="1500" y="0" height="1500"/></clipPath><clipPath id="ec17e69618"><rect x="0" width="1500" y="0" height="1500"/></clipPath><mask id="81579bf88c"><g filter="url(#09de785613)"><g transform="matrix(1, 0, 0, 1, 0, 0.000000000000112861)"><g clip-path="url(#ec17e69618)"><g transform="matrix(1, 0, 0, 1, 0, 0.000000000000112861)"><g clip-path="url(#21ccfd0be5)"><g fill="#000000" fill-opacity="1"><g transform="translate(-35.224618, 894.734515)"><g><path d="M 206.0625 33.859375 C 187.769531 31.523438 173.175781 23.15625 162.28125 8.75 C 153.71875 -2.53125 148.660156 -15.269531 147.109375 -29.46875 C 145.554688 -43.675781 145.554688 -54.675781 147.109375 -62.46875 C 150.609375 -80.363281 159.554688 -100.015625 173.953125 -121.421875 C 188.359375 -142.828125 207.039062 -165.007812 230 -187.96875 C 252.96875 -210.9375 278.65625 -233.992188 307.0625 -257.140625 C 335.46875 -280.296875 365.625 -302.867188 397.53125 -324.859375 C 429.445312 -346.847656 461.363281 -367.378906 493.28125 -386.453125 C 532.195312 -409.410156 567.609375 -425.65625 599.515625 -435.1875 C 631.429688 -444.726562 655.757812 -445.800781 672.5 -438.40625 C 683.007812 -433.738281 689.039062 -427.125 690.59375 -418.5625 C 693.707031 -403.382812 693.804688 -389.175781 690.890625 -375.9375 C 687.972656 -362.707031 683.785156 -351.128906 678.328125 -341.203125 C 672.878906 -331.285156 667.820312 -323.40625 663.15625 -317.5625 C 658.488281 -311.726562 655.957031 -308.617188 655.5625 -308.234375 C 653.226562 -305.890625 650.703125 -305.890625 647.984375 -308.234375 C 645.253906 -310.566406 645.253906 -313.09375 647.984375 -315.8125 C 647.984375 -315.8125 650.414062 -318.535156 655.28125 -323.984375 C 660.144531 -329.429688 665.394531 -336.828125 671.03125 -346.171875 C 676.675781 -355.515625 680.765625 -366.21875 683.296875 -378.28125 C 685.828125 -390.34375 684.757812 -402.988281 680.09375 -416.21875 C 678.144531 -421.664062 674.054688 -425.753906 667.828125 -428.484375 C 656.929688 -433.148438 637.179688 -432.367188 608.578125 -426.140625 C 579.972656 -419.921875 543.488281 -403.578125 499.125 -377.109375 C 467.207031 -358.046875 435.488281 -337.519531 403.96875 -315.53125 C 372.445312 -293.539062 342.578125 -271.0625 314.359375 -248.09375 C 286.140625 -225.132812 260.84375 -202.46875 238.46875 -180.09375 C 216.09375 -157.71875 197.800781 -136.3125 183.59375 -115.875 C 169.382812 -95.445312 160.722656 -76.863281 157.609375 -60.125 C 157.222656 -57.40625 157.03125 -52.441406 157.03125 -45.234375 C 157.03125 -38.035156 158.003906 -30.15625 159.953125 -21.59375 C 161.898438 -13.03125 165.597656 -5.054688 171.046875 2.328125 C 179.210938 14.003906 191.273438 20.816406 207.234375 22.765625 C 215.015625 23.546875 228.535156 21.796875 247.796875 17.515625 C 267.066406 13.234375 289.546875 6.226562 315.234375 -3.5 C 340.921875 -13.226562 367.578125 -25.582031 395.203125 -40.5625 C 422.835938 -55.550781 448.914062 -73.164062 473.4375 -93.40625 C 497.957031 -113.644531 518.582031 -136.601562 535.3125 -162.28125 L 532.984375 -163.453125 C 530.253906 -165.015625 526.648438 -166.085938 522.171875 -166.671875 C 517.703125 -167.253906 512.742188 -167.738281 507.296875 -168.125 C 488.222656 -164.625 469.25 -160.632812 450.375 -156.15625 C 431.5 -151.675781 415.054688 -147.6875 401.046875 -144.1875 C 380.035156 -139.125 364.757812 -135.617188 355.21875 -133.671875 C 345.6875 -131.734375 339.457031 -130.957031 336.53125 -131.34375 C 333.613281 -131.738281 331.769531 -133.101562 331 -135.4375 C 329.832031 -138.550781 330.898438 -141.367188 334.203125 -143.890625 C 337.515625 -146.421875 344.035156 -150.21875 353.765625 -155.28125 C 360.765625 -158.78125 370.394531 -162.085938 382.65625 -165.203125 C 394.914062 -168.316406 408.34375 -170.941406 422.9375 -173.078125 C 437.53125 -175.222656 452.125 -176.878906 466.71875 -178.046875 C 481.3125 -179.210938 494.445312 -179.601562 506.125 -179.21875 C 539.207031 -185.445312 567.035156 -188.363281 589.609375 -187.96875 C 612.179688 -187.582031 625.410156 -181.550781 629.296875 -169.875 C 630.078125 -166.375 628.910156 -164.039062 625.796875 -162.875 C 622.679688 -161.707031 620.347656 -162.875 618.796875 -166.375 C 616.453125 -173.375 607.59375 -177.066406 592.21875 -177.453125 C 576.851562 -177.847656 558.660156 -176.488281 537.640625 -173.375 C 542.703125 -171.039062 545.816406 -167.734375 546.984375 -163.453125 C 547.378906 -162.671875 547.1875 -161.3125 546.40625 -159.375 C 530.445312 -134.457031 510.789062 -111.878906 487.4375 -91.640625 C 464.09375 -71.410156 439.085938 -53.414062 412.421875 -37.65625 C 385.765625 -21.894531 359.492188 -8.757812 333.609375 1.75 C 307.734375 12.257812 284.191406 20.238281 262.984375 25.6875 C 241.773438 31.132812 225.140625 33.859375 213.078125 33.859375 Z M 358.4375 -145.359375 C 363.882812 -146.523438 370.109375 -147.984375 377.109375 -149.734375 C 384.117188 -151.484375 391.320312 -153.140625 398.71875 -154.703125 L 441.328125 -165.203125 C 424.984375 -163.253906 409.222656 -160.53125 394.046875 -157.03125 C 378.867188 -153.53125 367 -149.640625 358.4375 -145.359375 Z M 358.4375 -145.359375 "/></g></g></g><g fill="#000000" fill-opacity="1"><g transform="translate(555.542435, 894.734515)"><g><path d="M 142.4375 -86.984375 C 143.21875 -85.816406 143.21875 -84.550781 142.4375 -83.1875 C 141.65625 -81.820312 140.679688 -80.945312 139.515625 -80.5625 C 129.398438 -77.0625 120.351562 -74.628906 112.375 -73.265625 C 104.394531 -71.898438 97.488281 -71.21875 91.65625 -71.21875 C 84.257812 -71.21875 78.222656 -72.09375 73.546875 -73.84375 C 68.878906 -75.59375 65.1875 -77.832031 62.46875 -80.5625 C 61.6875 -81.34375 61.296875 -81.734375 61.296875 -81.734375 C 46.898438 -71.222656 32.015625 -63.4375 16.640625 -58.375 C 1.265625 -53.3125 -10.507812 -50.78125 -18.6875 -50.78125 C -22.570312 -50.78125 -25.289062 -51.65625 -26.84375 -53.40625 C -28.40625 -55.164062 -29.378906 -56.429688 -29.765625 -57.203125 C -32.109375 -64.210938 -24.519531 -74.140625 -7 -86.984375 C 11.675781 -100.992188 27.144531 -108.191406 39.40625 -108.578125 C 51.664062 -108.972656 59.738281 -106.832031 63.625 -102.15625 C 65.570312 -99.820312 66.546875 -97.097656 66.546875 -93.984375 L 66.546875 -92.8125 C 66.546875 -92.425781 66.835938 -91.550781 67.421875 -90.1875 C 68.003906 -88.832031 69.460938 -87.375 71.796875 -85.8125 C 74.910156 -83.863281 81.332031 -82.398438 91.0625 -81.421875 C 100.789062 -80.453125 115.773438 -83.472656 136.015625 -90.484375 C 139.515625 -91.265625 141.65625 -90.097656 142.4375 -86.984375 Z M 53.125 -89.3125 C 53.125 -89.707031 53.800781 -90.582031 55.15625 -91.9375 C 56.519531 -93.300781 56.617188 -94.566406 55.453125 -95.734375 C 53.117188 -98.460938 46.988281 -99.144531 37.0625 -97.78125 C 27.144531 -96.414062 14.398438 -90.09375 -1.171875 -78.8125 C -8.171875 -73.75 -12.835938 -69.757812 -15.171875 -66.84375 C -17.515625 -63.925781 -19.070312 -61.882812 -19.84375 -60.71875 L -18.09375 -60.71875 C -11.09375 -60.71875 -0.78125 -63.148438 12.84375 -68.015625 C 26.46875 -72.878906 39.894531 -79.976562 53.125 -89.3125 Z M 53.125 -89.3125 "/></g></g></g><g fill="#000000" fill-opacity="1"><g transform="translate(715.493244, 894.734515)"><g><path d="M -2.328125 -50.78125 C -11.285156 -50.78125 -16.929688 -53.503906 -19.265625 -58.953125 C -20.429688 -61.679688 -20.039062 -65.476562 -18.09375 -70.34375 C -16.144531 -75.207031 -8.75 -83.867188 4.09375 -96.328125 L 11.09375 -102.75 C 17.707031 -108.96875 26.5625 -116.75 37.65625 -126.09375 C 48.75 -135.4375 60.8125 -145.265625 73.84375 -155.578125 C 86.882812 -165.890625 99.535156 -175.226562 111.796875 -183.59375 C 124.054688 -191.957031 134.753906 -198.378906 143.890625 -202.859375 C 153.035156 -207.335938 159.363281 -208.40625 162.875 -206.0625 C 163.644531 -205.289062 164.515625 -203.929688 165.484375 -201.984375 C 166.460938 -200.035156 166.175781 -197.3125 164.625 -193.8125 C 161.894531 -186.414062 155.566406 -178.4375 145.640625 -169.875 C 135.722656 -161.3125 124.144531 -152.648438 110.90625 -143.890625 C 97.675781 -135.140625 84.25 -126.96875 70.625 -119.375 C 57.007812 -111.789062 44.753906 -105.175781 33.859375 -99.53125 C 22.960938 -93.882812 15.175781 -90.09375 10.5 -88.15625 C 3.113281 -80.757812 -1.9375 -75.304688 -4.65625 -71.796875 C -7.382812 -68.296875 -8.847656 -65.960938 -9.046875 -64.796875 C -9.242188 -63.628906 -9.34375 -63.046875 -9.34375 -63.046875 C -9.34375 -61.878906 -5.453125 -61.488281 2.328125 -61.875 C 7.390625 -62.269531 15.660156 -64.019531 27.140625 -67.125 C 38.617188 -70.238281 51.070312 -73.835938 64.5 -77.921875 C 77.925781 -82.015625 89.894531 -86.007812 100.40625 -89.90625 C 103.519531 -91.070312 105.851562 -90.289062 107.40625 -87.5625 C 108.582031 -84.0625 107.613281 -81.726562 104.5 -80.5625 C 93.207031 -76.664062 80.75 -72.578125 67.125 -68.296875 C 53.507812 -64.015625 40.863281 -60.316406 29.1875 -57.203125 C 17.507812 -54.085938 8.945312 -52.144531 3.5 -51.375 Z M 38.53125 -113.25 C 53.320312 -121.03125 68.984375 -129.976562 85.515625 -140.09375 C 102.054688 -150.21875 116.84375 -160.238281 129.875 -170.15625 C 142.914062 -180.082031 151.191406 -188.742188 154.703125 -196.140625 C 149.640625 -194.585938 141.171875 -190.015625 129.296875 -182.421875 C 117.429688 -174.835938 103.617188 -165.109375 87.859375 -153.234375 C 72.097656 -141.367188 55.65625 -128.039062 38.53125 -113.25 Z M 38.53125 -113.25 "/></g></g></g><g fill="#000000" fill-opacity="1"><g transform="translate(841.00206, 894.734515)"><g><path d="M 229.421875 -203.734375 C 230.585938 -202.953125 231.363281 -201.585938 231.75 -199.640625 C 232.144531 -197.703125 231.175781 -195.175781 228.84375 -192.0625 C 224.5625 -186.21875 217.359375 -179.40625 207.234375 -171.625 C 197.117188 -163.84375 185.441406 -155.765625 172.203125 -147.390625 C 158.972656 -139.023438 145.644531 -130.953125 132.21875 -123.171875 C 118.789062 -115.390625 106.335938 -108.382812 94.859375 -102.15625 C 83.378906 -95.925781 74.332031 -91.257812 67.71875 -88.15625 C 56.425781 -77.25 50.195312 -70.140625 49.03125 -66.828125 C 47.863281 -63.523438 47.28125 -61.875 47.28125 -61.875 C 47.675781 -61.488281 48.75 -61.097656 50.5 -60.703125 C 52.25 -60.316406 55.265625 -60.320312 59.546875 -60.71875 C 64.609375 -61.488281 72.878906 -63.332031 84.359375 -66.25 C 95.835938 -69.175781 108.289062 -72.875 121.71875 -77.34375 C 135.144531 -81.820312 147.109375 -86.007812 157.609375 -89.90625 C 159.953125 -90.675781 161.609375 -90.769531 162.578125 -90.1875 C 163.546875 -89.601562 164.226562 -88.726562 164.625 -87.5625 C 165.789062 -84.0625 164.816406 -81.726562 161.703125 -80.5625 C 150.421875 -76.28125 137.96875 -71.898438 124.34375 -67.421875 C 110.71875 -62.953125 97.96875 -59.160156 86.09375 -56.046875 C 74.226562 -52.929688 65.570312 -50.984375 60.125 -50.203125 L 54.875 -49.625 C 45.925781 -49.625 40.28125 -52.347656 37.9375 -57.796875 C 37.550781 -59.347656 37.257812 -60.898438 37.0625 -62.453125 C 36.875 -64.015625 37.363281 -66.160156 38.53125 -68.890625 C 26.851562 -62.660156 15.757812 -58.082031 5.25 -55.15625 C -5.25 -52.238281 -13.613281 -50.78125 -19.84375 -50.78125 C -24.125 -50.78125 -27.039062 -51.65625 -28.59375 -53.40625 C -30.15625 -55.164062 -31.128906 -56.429688 -31.515625 -57.203125 C -33.859375 -64.210938 -26.269531 -74.140625 -8.75 -86.984375 C 10.3125 -100.992188 25.875 -108.191406 37.9375 -108.578125 C 50.007812 -108.972656 57.988281 -106.832031 61.875 -102.15625 C 62.269531 -101.769531 62.660156 -101.285156 63.046875 -100.703125 C 63.429688 -100.117188 63.625 -99.628906 63.625 -99.234375 L 68.296875 -102.75 C 81.140625 -114.8125 95.925781 -127.164062 112.65625 -139.8125 C 129.394531 -152.457031 146.71875 -164.425781 164.625 -175.71875 C 183.6875 -187.78125 197.597656 -195.753906 206.359375 -199.640625 C 215.117188 -203.535156 220.957031 -205.382812 223.875 -205.1875 C 226.789062 -205 228.640625 -204.515625 229.421875 -203.734375 Z M 99.828125 -116.171875 C 113.835938 -123.953125 128.523438 -132.414062 143.890625 -141.5625 C 159.265625 -150.707031 173.46875 -159.851562 186.5 -169 C 199.539062 -178.144531 209.375 -186.023438 216 -192.640625 C 208.988281 -189.921875 199.160156 -184.765625 186.515625 -177.171875 C 173.867188 -169.585938 159.953125 -160.539062 144.765625 -150.03125 C 129.585938 -139.519531 114.609375 -128.234375 99.828125 -116.171875 Z M -21.015625 -60.71875 L -19.84375 -60.71875 C -12.84375 -60.71875 -2.4375 -63.148438 11.375 -68.015625 C 25.195312 -72.878906 38.53125 -79.976562 51.375 -89.3125 L 53.125 -91.0625 C 54.289062 -92.625 54.773438 -93.695312 54.578125 -94.28125 C 54.390625 -94.863281 54.296875 -95.347656 54.296875 -95.734375 C 51.953125 -98.460938 45.722656 -99.144531 35.609375 -97.78125 C 25.492188 -96.414062 12.847656 -90.09375 -2.328125 -78.8125 C -9.335938 -73.75 -14.109375 -69.757812 -16.640625 -66.84375 C -19.171875 -63.925781 -20.628906 -61.882812 -21.015625 -60.71875 Z M -21.015625 -60.71875 "/></g></g></g><g fill="#000000" fill-opacity="1"><g transform="translate(1023.719592, 894.734515)"><g><path d="M 14.015625 -50.78125 C 6.222656 -51.5625 -0.296875 -53.019531 -5.546875 -55.15625 C -10.796875 -57.300781 -14.394531 -60.320312 -16.34375 -64.21875 C -16.726562 -66.164062 -16.921875 -68.5 -16.921875 -71.21875 C -16.921875 -73.945312 -15.367188 -77.253906 -12.265625 -81.140625 C -9.535156 -84.640625 -5.738281 -87.945312 -0.875 -91.0625 C 3.988281 -94.175781 9.335938 -97.097656 15.171875 -99.828125 L 16.34375 -100.40625 C 24.125 -103.90625 32.003906 -106.722656 39.984375 -108.859375 C 47.960938 -111.003906 54.09375 -112.273438 58.375 -112.671875 C 60.707031 -113.054688 64.597656 -113.148438 70.046875 -112.953125 C 75.492188 -112.765625 78.800781 -110.53125 79.96875 -106.25 C 80.75 -104.6875 80.648438 -102.539062 79.671875 -99.8125 C 78.703125 -97.09375 75.492188 -94.175781 70.046875 -91.0625 C 63.429688 -87.5625 54.769531 -85.710938 44.0625 -85.515625 C 33.363281 -85.328125 24.515625 -86.59375 17.515625 -89.3125 C 7.003906 -84.644531 -0.195312 -79.78125 -4.09375 -74.71875 C -6.8125 -72 -7.585938 -69.859375 -6.421875 -68.296875 C -5.640625 -66.742188 -3.5 -65.285156 0 -63.921875 C 3.5 -62.554688 7.390625 -61.679688 11.671875 -61.296875 C 19.066406 -60.910156 35.507812 -62.757812 61 -66.84375 C 86.488281 -70.925781 116.941406 -78.804688 152.359375 -90.484375 C 155.859375 -91.265625 158 -90.097656 158.78125 -86.984375 C 160.34375 -83.484375 159.367188 -81.34375 155.859375 -80.5625 C 121.617188 -69.269531 91.847656 -61.484375 66.546875 -57.203125 C 41.253906 -52.921875 23.742188 -50.78125 14.015625 -50.78125 Z M 33.859375 -96.328125 C 39.304688 -95.929688 44.945312 -96.023438 50.78125 -96.609375 C 56.625 -97.191406 61.296875 -98.457031 64.796875 -100.40625 L 68.296875 -102.75 L 59.546875 -102.75 C 53.316406 -101.96875 44.753906 -99.828125 33.859375 -96.328125 Z M 33.859375 -96.328125 "/></g></g></g><g fill="#000000" fill-opacity="1"><g transform="translate(1200.015653, 894.734515)"><g><path d="M -32.6875 -49.625 C -34.25 -49.625 -35.613281 -50.207031 -36.78125 -51.375 C -39.113281 -53.707031 -38.914062 -56.039062 -36.1875 -58.375 L 18.09375 -111.5 C 20.425781 -113.832031 22.765625 -113.832031 25.109375 -111.5 C 27.828125 -109.164062 27.828125 -106.632812 25.109375 -103.90625 L 7.59375 -86.984375 C 20.820312 -94.765625 34.242188 -101.570312 47.859375 -107.40625 C 61.484375 -113.25 71.992188 -114.804688 79.390625 -112.078125 C 82.117188 -110.910156 83.867188 -109.546875 84.640625 -107.984375 C 85.421875 -106.429688 86.003906 -105.070312 86.390625 -103.90625 C 87.171875 -100.019531 85.90625 -95.835938 82.59375 -91.359375 C 79.289062 -86.878906 75.890625 -82.890625 72.390625 -79.390625 C 61.878906 -69.660156 56.234375 -63.628906 55.453125 -61.296875 L 60.125 -61.875 C 62.851562 -62.269531 69.757812 -63.535156 80.84375 -65.671875 C 91.9375 -67.816406 105.753906 -71.03125 122.296875 -75.3125 C 138.835938 -79.59375 156.445312 -84.648438 175.125 -90.484375 C 178.238281 -91.265625 180.378906 -90.097656 181.546875 -86.984375 C 182.328125 -83.484375 181.160156 -81.34375 178.046875 -80.5625 C 158.972656 -74.71875 141.066406 -69.65625 124.328125 -65.375 C 107.597656 -61.09375 93.585938 -57.785156 82.296875 -55.453125 C 71.015625 -53.117188 64.015625 -51.757812 61.296875 -51.375 C 59.347656 -50.976562 56.523438 -50.972656 52.828125 -51.359375 C 49.128906 -51.753906 46.503906 -53.507812 44.953125 -56.625 C 43.390625 -60.125 44.359375 -64.207031 47.859375 -68.875 C 51.367188 -73.550781 57.207031 -79.585938 65.375 -86.984375 C 73.164062 -94.765625 76.671875 -99.820312 75.890625 -102.15625 C 71.992188 -103.71875 65.863281 -103.035156 57.5 -100.109375 C 49.132812 -97.191406 39.796875 -92.910156 29.484375 -87.265625 C 19.171875 -81.628906 8.757812 -75.5 -1.75 -68.875 C -12.257812 -62.257812 -21.597656 -56.035156 -29.765625 -50.203125 C -30.546875 -49.816406 -31.519531 -49.625 -32.6875 -49.625 Z M -32.6875 -49.625 "/></g></g></g></g></g></g></g></g></mask><clipPath id="73105079ea"><path d="M 0 0 L 1500 0 L 1500 1500 L 0 1500 Z M 0 0 " clip-rule="nonzero"/></clipPath><clipPath id="174dd70c2c"><rect x="0" width="1500" y="0" height="1500"/></clipPath><clipPath id="9909e17408"><rect x="0" width="1500" y="0" height="1500"/></clipPath><clipPath id="515c58a061"><rect x="0" width="1500" y="0" height="1500"/></clipPath></defs><g transform="matrix(1, 0, 0, 1, 0, 0.000000000000112861)"><g clip-path="url(#515c58a061)"><g fill="#5b2b08" fill-opacity="0.302"><g transform="translate(-20.274179, 906.415031)"><g><path d="M 206.0625 33.859375 C 187.769531 31.523438 173.175781 23.15625 162.28125 8.75 C 153.71875 -2.53125 148.660156 -15.269531 147.109375 -29.46875 C 145.554688 -43.675781 145.554688 -54.675781 147.109375 -62.46875 C 150.609375 -80.363281 159.554688 -100.015625 173.953125 -121.421875 C 188.359375 -142.828125 207.039062 -165.007812 230 -187.96875 C 252.96875 -210.9375 278.65625 -233.992188 307.0625 -257.140625 C 335.46875 -280.296875 365.625 -302.867188 397.53125 -324.859375 C 429.445312 -346.847656 461.363281 -367.378906 493.28125 -386.453125 C 532.195312 -409.410156 567.609375 -425.65625 599.515625 -435.1875 C 631.429688 -444.726562 655.757812 -445.800781 672.5 -438.40625 C 683.007812 -433.738281 689.039062 -427.125 690.59375 -418.5625 C 693.707031 -403.382812 693.804688 -389.175781 690.890625 -375.9375 C 687.972656 -362.707031 683.785156 -351.128906 678.328125 -341.203125 C 672.878906 -331.285156 667.820312 -323.40625 663.15625 -317.5625 C 658.488281 -311.726562 655.957031 -308.617188 655.5625 -308.234375 C 653.226562 -305.890625 650.703125 -305.890625 647.984375 -308.234375 C 645.253906 -310.566406 645.253906 -313.09375 647.984375 -315.8125 C 647.984375 -315.8125 650.414062 -318.535156 655.28125 -323.984375 C 660.144531 -329.429688 665.394531 -336.828125 671.03125 -346.171875 C 676.675781 -355.515625 680.765625 -366.21875 683.296875 -378.28125 C 685.828125 -390.34375 684.757812 -402.988281 680.09375 -416.21875 C 678.144531 -421.664062 674.054688 -425.753906 667.828125 -428.484375 C 656.929688 -433.148438 637.179688 -432.367188 608.578125 -426.140625 C 579.972656 -419.921875 543.488281 -403.578125 499.125 -377.109375 C 467.207031 -358.046875 435.488281 -337.519531 403.96875 -315.53125 C 372.445312 -293.539062 342.578125 -271.0625 314.359375 -248.09375 C 286.140625 -225.132812 260.84375 -202.46875 238.46875 -180.09375 C 216.09375 -157.71875 197.800781 -136.3125 183.59375 -115.875 C 169.382812 -95.445312 160.722656 -76.863281 157.609375 -60.125 C 157.222656 -57.40625 157.03125 -52.441406 157.03125 -45.234375 C 157.03125 -38.035156 158.003906 -30.15625 159.953125 -21.59375 C 161.898438 -13.03125 165.597656 -5.054688 171.046875 2.328125 C 179.210938 14.003906 191.273438 20.816406 207.234375 22.765625 C 215.015625 23.546875 228.535156 21.796875 247.796875 17.515625 C 267.066406 13.234375 289.546875 6.226562 315.234375 -3.5 C 340.921875 -13.226562 367.578125 -25.582031 395.203125 -40.5625 C 422.835938 -55.550781 448.914062 -73.164062 473.4375 -93.40625 C 497.957031 -113.644531 518.582031 -136.601562 535.3125 -162.28125 L 532.984375 -163.453125 C 530.253906 -165.015625 526.648438 -166.085938 522.171875 -166.671875 C 517.703125 -167.253906 512.742188 -167.738281 507.296875 -168.125 C 488.222656 -164.625 469.25 -160.632812 450.375 -156.15625 C 431.5 -151.675781 415.054688 -147.6875 401.046875 -144.1875 C 380.035156 -139.125 364.757812 -135.617188 355.21875 -133.671875 C 345.6875 -131.734375 339.457031 -130.957031 336.53125 -131.34375 C 333.613281 -131.738281 331.769531 -133.101562 331 -135.4375 C 329.832031 -138.550781 330.898438 -141.367188 334.203125 -143.890625 C 337.515625 -146.421875 344.035156 -150.21875 353.765625 -155.28125 C 360.765625 -158.78125 370.394531 -162.085938 382.65625 -165.203125 C 394.914062 -168.316406 408.34375 -170.941406 422.9375 -173.078125 C 437.53125 -175.222656 452.125 -176.878906 466.71875 -178.046875 C 481.3125 -179.210938 494.445312 -179.601562 506.125 -179.21875 C 539.207031 -185.445312 567.035156 -188.363281 589.609375 -187.96875 C 612.179688 -187.582031 625.410156 -181.550781 629.296875 -169.875 C 630.078125 -166.375 628.910156 -164.039062 625.796875 -162.875 C 622.679688 -161.707031 620.347656 -162.875 618.796875 -166.375 C 616.453125 -173.375 607.59375 -177.066406 592.21875 -177.453125 C 576.851562 -177.847656 558.660156 -176.488281 537.640625 -173.375 C 542.703125 -171.039062 545.816406 -167.734375 546.984375 -163.453125 C 547.378906 -162.671875 547.1875 -161.3125 546.40625 -159.375 C 530.445312 -134.457031 510.789062 -111.878906 487.4375 -91.640625 C 464.09375 -71.410156 439.085938 -53.414062 412.421875 -37.65625 C 385.765625 -21.894531 359.492188 -8.757812 333.609375 1.75 C 307.734375 12.257812 284.191406 20.238281 262.984375 25.6875 C 241.773438 31.132812 225.140625 33.859375 213.078125 33.859375 Z M 358.4375 -145.359375 C 363.882812 -146.523438 370.109375 -147.984375 377.109375 -149.734375 C 384.117188 -151.484375 391.320312 -153.140625 398.71875 -154.703125 L 441.328125 -165.203125 C 424.984375 -163.253906 409.222656 -160.53125 394.046875 -157.03125 C 378.867188 -153.53125 367 -149.640625 358.4375 -145.359375 Z M 358.4375 -145.359375 "/></g></g></g><g fill="#5b2b08" fill-opacity="0.302"><g transform="translate(570.492874, 906.415031)"><g><path d="M 142.4375 -86.984375 C 143.21875 -85.816406 143.21875 -84.550781 142.4375 -83.1875 C 141.65625 -81.820312 140.679688 -80.945312 139.515625 -80.5625 C 129.398438 -77.0625 120.351562 -74.628906 112.375 -73.265625 C 104.394531 -71.898438 97.488281 -71.21875 91.65625 -71.21875 C 84.257812 -71.21875 78.222656 -72.09375 73.546875 -73.84375 C 68.878906 -75.59375 65.1875 -77.832031 62.46875 -80.5625 C 61.6875 -81.34375 61.296875 -81.734375 61.296875 -81.734375 C 46.898438 -71.222656 32.015625 -63.4375 16.640625 -58.375 C 1.265625 -53.3125 -10.507812 -50.78125 -18.6875 -50.78125 C -22.570312 -50.78125 -25.289062 -51.65625 -26.84375 -53.40625 C -28.40625 -55.164062 -29.378906 -56.429688 -29.765625 -57.203125 C -32.109375 -64.210938 -24.519531 -74.140625 -7 -86.984375 C 11.675781 -100.992188 27.144531 -108.191406 39.40625 -108.578125 C 51.664062 -108.972656 59.738281 -106.832031 63.625 -102.15625 C 65.570312 -99.820312 66.546875 -97.097656 66.546875 -93.984375 L 66.546875 -92.8125 C 66.546875 -92.425781 66.835938 -91.550781 67.421875 -90.1875 C 68.003906 -88.832031 69.460938 -87.375 71.796875 -85.8125 C 74.910156 -83.863281 81.332031 -82.398438 91.0625 -81.421875 C 100.789062 -80.453125 115.773438 -83.472656 136.015625 -90.484375 C 139.515625 -91.265625 141.65625 -90.097656 142.4375 -86.984375 Z M 53.125 -89.3125 C 53.125 -89.707031 53.800781 -90.582031 55.15625 -91.9375 C 56.519531 -93.300781 56.617188 -94.566406 55.453125 -95.734375 C 53.117188 -98.460938 46.988281 -99.144531 37.0625 -97.78125 C 27.144531 -96.414062 14.398438 -90.09375 -1.171875 -78.8125 C -8.171875 -73.75 -12.835938 -69.757812 -15.171875 -66.84375 C -17.515625 -63.925781 -19.070312 -61.882812 -19.84375 -60.71875 L -18.09375 -60.71875 C -11.09375 -60.71875 -0.78125 -63.148438 12.84375 -68.015625 C 26.46875 -72.878906 39.894531 -79.976562 53.125 -89.3125 Z M 53.125 -89.3125 "/></g></g></g><g fill="#5b2b08" fill-opacity="0.302"><g transform="translate(730.443683, 906.415031)"><g><path d="M -2.328125 -50.78125 C -11.285156 -50.78125 -16.929688 -53.503906 -19.265625 -58.953125 C -20.429688 -61.679688 -20.039062 -65.476562 -18.09375 -70.34375 C -16.144531 -75.207031 -8.75 -83.867188 4.09375 -96.328125 L 11.09375 -102.75 C 17.707031 -108.96875 26.5625 -116.75 37.65625 -126.09375 C 48.75 -135.4375 60.8125 -145.265625 73.84375 -155.578125 C 86.882812 -165.890625 99.535156 -175.226562 111.796875 -183.59375 C 124.054688 -191.957031 134.753906 -198.378906 143.890625 -202.859375 C 153.035156 -207.335938 159.363281 -208.40625 162.875 -206.0625 C 163.644531 -205.289062 164.515625 -203.929688 165.484375 -201.984375 C 166.460938 -200.035156 166.175781 -197.3125 164.625 -193.8125 C 161.894531 -186.414062 155.566406 -178.4375 145.640625 -169.875 C 135.722656 -161.3125 124.144531 -152.648438 110.90625 -143.890625 C 97.675781 -135.140625 84.25 -126.96875 70.625 -119.375 C 57.007812 -111.789062 44.753906 -105.175781 33.859375 -99.53125 C 22.960938 -93.882812 15.175781 -90.09375 10.5 -88.15625 C 3.113281 -80.757812 -1.9375 -75.304688 -4.65625 -71.796875 C -7.382812 -68.296875 -8.847656 -65.960938 -9.046875 -64.796875 C -9.242188 -63.628906 -9.34375 -63.046875 -9.34375 -63.046875 C -9.34375 -61.878906 -5.453125 -61.488281 2.328125 -61.875 C 7.390625 -62.269531 15.660156 -64.019531 27.140625 -67.125 C 38.617188 -70.238281 51.070312 -73.835938 64.5 -77.921875 C 77.925781 -82.015625 89.894531 -86.007812 100.40625 -89.90625 C 103.519531 -91.070312 105.851562 -90.289062 107.40625 -87.5625 C 108.582031 -84.0625 107.613281 -81.726562 104.5 -80.5625 C 93.207031 -76.664062 80.75 -72.578125 67.125 -68.296875 C 53.507812 -64.015625 40.863281 -60.316406 29.1875 -57.203125 C 17.507812 -54.085938 8.945312 -52.144531 3.5 -51.375 Z M 38.53125 -113.25 C 53.320312 -121.03125 68.984375 -129.976562 85.515625 -140.09375 C 102.054688 -150.21875 116.84375 -160.238281 129.875 -170.15625 C 142.914062 -180.082031 151.191406 -188.742188 154.703125 -196.140625 C 149.640625 -194.585938 141.171875 -190.015625 129.296875 -182.421875 C 117.429688 -174.835938 103.617188 -165.109375 87.859375 -153.234375 C 72.097656 -141.367188 55.65625 -128.039062 38.53125 -113.25 Z M 38.53125 -113.25 "/></g></g></g><g fill="#5b2b08" fill-opacity="0.302"><g transform="translate(855.952499, 906.415031)"><g><path d="M 229.421875 -203.734375 C 230.585938 -202.953125 231.363281 -201.585938 231.75 -199.640625 C 232.144531 -197.703125 231.175781 -195.175781 228.84375 -192.0625 C 224.5625 -186.21875 217.359375 -179.40625 207.234375 -171.625 C 197.117188 -163.84375 185.441406 -155.765625 172.203125 -147.390625 C 158.972656 -139.023438 145.644531 -130.953125 132.21875 -123.171875 C 118.789062 -115.390625 106.335938 -108.382812 94.859375 -102.15625 C 83.378906 -95.925781 74.332031 -91.257812 67.71875 -88.15625 C 56.425781 -77.25 50.195312 -70.140625 49.03125 -66.828125 C 47.863281 -63.523438 47.28125 -61.875 47.28125 -61.875 C 47.675781 -61.488281 48.75 -61.097656 50.5 -60.703125 C 52.25 -60.316406 55.265625 -60.320312 59.546875 -60.71875 C 64.609375 -61.488281 72.878906 -63.332031 84.359375 -66.25 C 95.835938 -69.175781 108.289062 -72.875 121.71875 -77.34375 C 135.144531 -81.820312 147.109375 -86.007812 157.609375 -89.90625 C 159.953125 -90.675781 161.609375 -90.769531 162.578125 -90.1875 C 163.546875 -89.601562 164.226562 -88.726562 164.625 -87.5625 C 165.789062 -84.0625 164.816406 -81.726562 161.703125 -80.5625 C 150.421875 -76.28125 137.96875 -71.898438 124.34375 -67.421875 C 110.71875 -62.953125 97.96875 -59.160156 86.09375 -56.046875 C 74.226562 -52.929688 65.570312 -50.984375 60.125 -50.203125 L 54.875 -49.625 C 45.925781 -49.625 40.28125 -52.347656 37.9375 -57.796875 C 37.550781 -59.347656 37.257812 -60.898438 37.0625 -62.453125 C 36.875 -64.015625 37.363281 -66.160156 38.53125 -68.890625 C 26.851562 -62.660156 15.757812 -58.082031 5.25 -55.15625 C -5.25 -52.238281 -13.613281 -50.78125 -19.84375 -50.78125 C -24.125 -50.78125 -27.039062 -51.65625 -28.59375 -53.40625 C -30.15625 -55.164062 -31.128906 -56.429688 -31.515625 -57.203125 C -33.859375 -64.210938 -26.269531 -74.140625 -8.75 -86.984375 C 10.3125 -100.992188 25.875 -108.191406 37.9375 -108.578125 C 50.007812 -108.972656 57.988281 -106.832031 61.875 -102.15625 C 62.269531 -101.769531 62.660156 -101.285156 63.046875 -100.703125 C 63.429688 -100.117188 63.625 -99.628906 63.625 -99.234375 L 68.296875 -102.75 C 81.140625 -114.8125 95.925781 -127.164062 112.65625 -139.8125 C 129.394531 -152.457031 146.71875 -164.425781 164.625 -175.71875 C 183.6875 -187.78125 197.597656 -195.753906 206.359375 -199.640625 C 215.117188 -203.535156 220.957031 -205.382812 223.875 -205.1875 C 226.789062 -205 228.640625 -204.515625 229.421875 -203.734375 Z M 99.828125 -116.171875 C 113.835938 -123.953125 128.523438 -132.414062 143.890625 -141.5625 C 159.265625 -150.707031 173.46875 -159.851562 186.5 -169 C 199.539062 -178.144531 209.375 -186.023438 216 -192.640625 C 208.988281 -189.921875 199.160156 -184.765625 186.515625 -177.171875 C 173.867188 -169.585938 159.953125 -160.539062 144.765625 -150.03125 C 129.585938 -139.519531 114.609375 -128.234375 99.828125 -116.171875 Z M -21.015625 -60.71875 L -19.84375 -60.71875 C -12.84375 -60.71875 -2.4375 -63.148438 11.375 -68.015625 C 25.195312 -72.878906 38.53125 -79.976562 51.375 -89.3125 L 53.125 -91.0625 C 54.289062 -92.625 54.773438 -93.695312 54.578125 -94.28125 C 54.390625 -94.863281 54.296875 -95.347656 54.296875 -95.734375 C 51.953125 -98.460938 45.722656 -99.144531 35.609375 -97.78125 C 25.492188 -96.414062 12.847656 -90.09375 -2.328125 -78.8125 C -9.335938 -73.75 -14.109375 -69.757812 -16.640625 -66.84375 C -19.171875 -63.925781 -20.628906 -61.882812 -21.015625 -60.71875 Z M -21.015625 -60.71875 "/></g></g></g><g fill="#5b2b08" fill-opacity="0.302"><g transform="translate(1038.670031, 906.415031)"><g><path d="M 14.015625 -50.78125 C 6.222656 -51.5625 -0.296875 -53.019531 -5.546875 -55.15625 C -10.796875 -57.300781 -14.394531 -60.320312 -16.34375 -64.21875 C -16.726562 -66.164062 -16.921875 -68.5 -16.921875 -71.21875 C -16.921875 -73.945312 -15.367188 -77.253906 -12.265625 -81.140625 C -9.535156 -84.640625 -5.738281 -87.945312 -0.875 -91.0625 C 3.988281 -94.175781 9.335938 -97.097656 15.171875 -99.828125 L 16.34375 -100.40625 C 24.125 -103.90625 32.003906 -106.722656 39.984375 -108.859375 C 47.960938 -111.003906 54.09375 -112.273438 58.375 -112.671875 C 60.707031 -113.054688 64.597656 -113.148438 70.046875 -112.953125 C 75.492188 -112.765625 78.800781 -110.53125 79.96875 -106.25 C 80.75 -104.6875 80.648438 -102.539062 79.671875 -99.8125 C 78.703125 -97.09375 75.492188 -94.175781 70.046875 -91.0625 C 63.429688 -87.5625 54.769531 -85.710938 44.0625 -85.515625 C 33.363281 -85.328125 24.515625 -86.59375 17.515625 -89.3125 C 7.003906 -84.644531 -0.195312 -79.78125 -4.09375 -74.71875 C -6.8125 -72 -7.585938 -69.859375 -6.421875 -68.296875 C -5.640625 -66.742188 -3.5 -65.285156 0 -63.921875 C 3.5 -62.554688 7.390625 -61.679688 11.671875 -61.296875 C 19.066406 -60.910156 35.507812 -62.757812 61 -66.84375 C 86.488281 -70.925781 116.941406 -78.804688 152.359375 -90.484375 C 155.859375 -91.265625 158 -90.097656 158.78125 -86.984375 C 160.34375 -83.484375 159.367188 -81.34375 155.859375 -80.5625 C 121.617188 -69.269531 91.847656 -61.484375 66.546875 -57.203125 C 41.253906 -52.921875 23.742188 -50.78125 14.015625 -50.78125 Z M 33.859375 -96.328125 C 39.304688 -95.929688 44.945312 -96.023438 50.78125 -96.609375 C 56.625 -97.191406 61.296875 -98.457031 64.796875 -100.40625 L 68.296875 -102.75 L 59.546875 -102.75 C 53.316406 -101.96875 44.753906 -99.828125 33.859375 -96.328125 Z M 33.859375 -96.328125 "/></g></g></g><g fill="#5b2b08" fill-opacity="0.302"><g transform="translate(1214.966091, 906.415031)"><g><path d="M -32.6875 -49.625 C -34.25 -49.625 -35.613281 -50.207031 -36.78125 -51.375 C -39.113281 -53.707031 -38.914062 -56.039062 -36.1875 -58.375 L 18.09375 -111.5 C 20.425781 -113.832031 22.765625 -113.832031 25.109375 -111.5 C 27.828125 -109.164062 27.828125 -106.632812 25.109375 -103.90625 L 7.59375 -86.984375 C 20.820312 -94.765625 34.242188 -101.570312 47.859375 -107.40625 C 61.484375 -113.25 71.992188 -114.804688 79.390625 -112.078125 C 82.117188 -110.910156 83.867188 -109.546875 84.640625 -107.984375 C 85.421875 -106.429688 86.003906 -105.070312 86.390625 -103.90625 C 87.171875 -100.019531 85.90625 -95.835938 82.59375 -91.359375 C 79.289062 -86.878906 75.890625 -82.890625 72.390625 -79.390625 C 61.878906 -69.660156 56.234375 -63.628906 55.453125 -61.296875 L 60.125 -61.875 C 62.851562 -62.269531 69.757812 -63.535156 80.84375 -65.671875 C 91.9375 -67.816406 105.753906 -71.03125 122.296875 -75.3125 C 138.835938 -79.59375 156.445312 -84.648438 175.125 -90.484375 C 178.238281 -91.265625 180.378906 -90.097656 181.546875 -86.984375 C 182.328125 -83.484375 181.160156 -81.34375 178.046875 -80.5625 C 158.972656 -74.71875 141.066406 -69.65625 124.328125 -65.375 C 107.597656 -61.09375 93.585938 -57.785156 82.296875 -55.453125 C 71.015625 -53.117188 64.015625 -51.757812 61.296875 -51.375 C 59.347656 -50.976562 56.523438 -50.972656 52.828125 -51.359375 C 49.128906 -51.753906 46.503906 -53.507812 44.953125 -56.625 C 43.390625 -60.125 44.359375 -64.207031 47.859375 -68.875 C 51.367188 -73.550781 57.207031 -79.585938 65.375 -86.984375 C 73.164062 -94.765625 76.671875 -99.820312 75.890625 -102.15625 C 71.992188 -103.71875 65.863281 -103.035156 57.5 -100.109375 C 49.132812 -97.191406 39.796875 -92.910156 29.484375 -87.265625 C 19.171875 -81.628906 8.757812 -75.5 -1.75 -68.875 C -12.257812 -62.257812 -21.597656 -56.035156 -29.765625 -50.203125 C -30.546875 -49.816406 -31.519531 -49.625 -32.6875 -49.625 Z M -32.6875 -49.625 "/></g></g></g><g fill="#5b2b08" fill-opacity="0.502"><g transform="translate(-27.749458, 900.574787)"><g><path d="M 206.0625 33.859375 C 187.769531 31.523438 173.175781 23.15625 162.28125 8.75 C 153.71875 -2.53125 148.660156 -15.269531 147.109375 -29.46875 C 145.554688 -43.675781 145.554688 -54.675781 147.109375 -62.46875 C 150.609375 -80.363281 159.554688 -100.015625 173.953125 -121.421875 C 188.359375 -142.828125 207.039062 -165.007812 230 -187.96875 C 252.96875 -210.9375 278.65625 -233.992188 307.0625 -257.140625 C 335.46875 -280.296875 365.625 -302.867188 397.53125 -324.859375 C 429.445312 -346.847656 461.363281 -367.378906 493.28125 -386.453125 C 532.195312 -409.410156 567.609375 -425.65625 599.515625 -435.1875 C 631.429688 -444.726562 655.757812 -445.800781 672.5 -438.40625 C 683.007812 -433.738281 689.039062 -427.125 690.59375 -418.5625 C 693.707031 -403.382812 693.804688 -389.175781 690.890625 -375.9375 C 687.972656 -362.707031 683.785156 -351.128906 678.328125 -341.203125 C 672.878906 -331.285156 667.820312 -323.40625 663.15625 -317.5625 C 658.488281 -311.726562 655.957031 -308.617188 655.5625 -308.234375 C 653.226562 -305.890625 650.703125 -305.890625 647.984375 -308.234375 C 645.253906 -310.566406 645.253906 -313.09375 647.984375 -315.8125 C 647.984375 -315.8125 650.414062 -318.535156 655.28125 -323.984375 C 660.144531 -329.429688 665.394531 -336.828125 671.03125 -346.171875 C 676.675781 -355.515625 680.765625 -366.21875 683.296875 -378.28125 C 685.828125 -390.34375 684.757812 -402.988281 680.09375 -416.21875 C 678.144531 -421.664062 674.054688 -425.753906 667.828125 -428.484375 C 656.929688 -433.148438 637.179688 -432.367188 608.578125 -426.140625 C 579.972656 -419.921875 543.488281 -403.578125 499.125 -377.109375 C 467.207031 -358.046875 435.488281 -337.519531 403.96875 -315.53125 C 372.445312 -293.539062 342.578125 -271.0625 314.359375 -248.09375 C 286.140625 -225.132812 260.84375 -202.46875 238.46875 -180.09375 C 216.09375 -157.71875 197.800781 -136.3125 183.59375 -115.875 C 169.382812 -95.445312 160.722656 -76.863281 157.609375 -60.125 C 157.222656 -57.40625 157.03125 -52.441406 157.03125 -45.234375 C 157.03125 -38.035156 158.003906 -30.15625 159.953125 -21.59375 C 161.898438 -13.03125 165.597656 -5.054688 171.046875 2.328125 C 179.210938 14.003906 191.273438 20.816406 207.234375 22.765625 C 215.015625 23.546875 228.535156 21.796875 247.796875 17.515625 C 267.066406 13.234375 289.546875 6.226562 315.234375 -3.5 C 340.921875 -13.226562 367.578125 -25.582031 395.203125 -40.5625 C 422.835938 -55.550781 448.914062 -73.164062 473.4375 -93.40625 C 497.957031 -113.644531 518.582031 -136.601562 535.3125 -162.28125 L 532.984375 -163.453125 C 530.253906 -165.015625 526.648438 -166.085938 522.171875 -166.671875 C 517.703125 -167.253906 512.742188 -167.738281 507.296875 -168.125 C 488.222656 -164.625 469.25 -160.632812 450.375 -156.15625 C 431.5 -151.675781 415.054688 -147.6875 401.046875 -144.1875 C 380.035156 -139.125 364.757812 -135.617188 355.21875 -133.671875 C 345.6875 -131.734375 339.457031 -130.957031 336.53125 -131.34375 C 333.613281 -131.738281 331.769531 -133.101562 331 -135.4375 C 329.832031 -138.550781 330.898438 -141.367188 334.203125 -143.890625 C 337.515625 -146.421875 344.035156 -150.21875 353.765625 -155.28125 C 360.765625 -158.78125 370.394531 -162.085938 382.65625 -165.203125 C 394.914062 -168.316406 408.34375 -170.941406 422.9375 -173.078125 C 437.53125 -175.222656 452.125 -176.878906 466.71875 -178.046875 C 481.3125 -179.210938 494.445312 -179.601562 506.125 -179.21875 C 539.207031 -185.445312 567.035156 -188.363281 589.609375 -187.96875 C 612.179688 -187.582031 625.410156 -181.550781 629.296875 -169.875 C 630.078125 -166.375 628.910156 -164.039062 625.796875 -162.875 C 622.679688 -161.707031 620.347656 -162.875 618.796875 -166.375 C 616.453125 -173.375 607.59375 -177.066406 592.21875 -177.453125 C 576.851562 -177.847656 558.660156 -176.488281 537.640625 -173.375 C 542.703125 -171.039062 545.816406 -167.734375 546.984375 -163.453125 C 547.378906 -162.671875 547.1875 -161.3125 546.40625 -159.375 C 530.445312 -134.457031 510.789062 -111.878906 487.4375 -91.640625 C 464.09375 -71.410156 439.085938 -53.414062 412.421875 -37.65625 C 385.765625 -21.894531 359.492188 -8.757812 333.609375 1.75 C 307.734375 12.257812 284.191406 20.238281 262.984375 25.6875 C 241.773438 31.132812 225.140625 33.859375 213.078125 33.859375 Z M 358.4375 -145.359375 C 363.882812 -146.523438 370.109375 -147.984375 377.109375 -149.734375 C 384.117188 -151.484375 391.320312 -153.140625 398.71875 -154.703125 L 441.328125 -165.203125 C 424.984375 -163.253906 409.222656 -160.53125 394.046875 -157.03125 C 378.867188 -153.53125 367 -149.640625 358.4375 -145.359375 Z M 358.4375 -145.359375 "/></g></g></g><g fill="#5b2b08" fill-opacity="0.502"><g transform="translate(563.017594, 900.574787)"><g><path d="M 142.4375 -86.984375 C 143.21875 -85.816406 143.21875 -84.550781 142.4375 -83.1875 C 141.65625 -81.820312 140.679688 -80.945312 139.515625 -80.5625 C 129.398438 -77.0625 120.351562 -74.628906 112.375 -73.265625 C 104.394531 -71.898438 97.488281 -71.21875 91.65625 -71.21875 C 84.257812 -71.21875 78.222656 -72.09375 73.546875 -73.84375 C 68.878906 -75.59375 65.1875 -77.832031 62.46875 -80.5625 C 61.6875 -81.34375 61.296875 -81.734375 61.296875 -81.734375 C 46.898438 -71.222656 32.015625 -63.4375 16.640625 -58.375 C 1.265625 -53.3125 -10.507812 -50.78125 -18.6875 -50.78125 C -22.570312 -50.78125 -25.289062 -51.65625 -26.84375 -53.40625 C -28.40625 -55.164062 -29.378906 -56.429688 -29.765625 -57.203125 C -32.109375 -64.210938 -24.519531 -74.140625 -7 -86.984375 C 11.675781 -100.992188 27.144531 -108.191406 39.40625 -108.578125 C 51.664062 -108.972656 59.738281 -106.832031 63.625 -102.15625 C 65.570312 -99.820312 66.546875 -97.097656 66.546875 -93.984375 L 66.546875 -92.8125 C 66.546875 -92.425781 66.835938 -91.550781 67.421875 -90.1875 C 68.003906 -88.832031 69.460938 -87.375 71.796875 -85.8125 C 74.910156 -83.863281 81.332031 -82.398438 91.0625 -81.421875 C 100.789062 -80.453125 115.773438 -83.472656 136.015625 -90.484375 C 139.515625 -91.265625 141.65625 -90.097656 142.4375 -86.984375 Z M 53.125 -89.3125 C 53.125 -89.707031 53.800781 -90.582031 55.15625 -91.9375 C 56.519531 -93.300781 56.617188 -94.566406 55.453125 -95.734375 C 53.117188 -98.460938 46.988281 -99.144531 37.0625 -97.78125 C 27.144531 -96.414062 14.398438 -90.09375 -1.171875 -78.8125 C -8.171875 -73.75 -12.835938 -69.757812 -15.171875 -66.84375 C -17.515625 -63.925781 -19.070312 -61.882812 -19.84375 -60.71875 L -18.09375 -60.71875 C -11.09375 -60.71875 -0.78125 -63.148438 12.84375 -68.015625 C 26.46875 -72.878906 39.894531 -79.976562 53.125 -89.3125 Z M 53.125 -89.3125 "/></g></g></g><g fill="#5b2b08" fill-opacity="0.502"><g transform="translate(722.968403, 900.574787)"><g><path d="M -2.328125 -50.78125 C -11.285156 -50.78125 -16.929688 -53.503906 -19.265625 -58.953125 C -20.429688 -61.679688 -20.039062 -65.476562 -18.09375 -70.34375 C -16.144531 -75.207031 -8.75 -83.867188 4.09375 -96.328125 L 11.09375 -102.75 C 17.707031 -108.96875 26.5625 -116.75 37.65625 -126.09375 C 48.75 -135.4375 60.8125 -145.265625 73.84375 -155.578125 C 86.882812 -165.890625 99.535156 -175.226562 111.796875 -183.59375 C 124.054688 -191.957031 134.753906 -198.378906 143.890625 -202.859375 C 153.035156 -207.335938 159.363281 -208.40625 162.875 -206.0625 C 163.644531 -205.289062 164.515625 -203.929688 165.484375 -201.984375 C 166.460938 -200.035156 166.175781 -197.3125 164.625 -193.8125 C 161.894531 -186.414062 155.566406 -178.4375 145.640625 -169.875 C 135.722656 -161.3125 124.144531 -152.648438 110.90625 -143.890625 C 97.675781 -135.140625 84.25 -126.96875 70.625 -119.375 C 57.007812 -111.789062 44.753906 -105.175781 33.859375 -99.53125 C 22.960938 -93.882812 15.175781 -90.09375 10.5 -88.15625 C 3.113281 -80.757812 -1.9375 -75.304688 -4.65625 -71.796875 C -7.382812 -68.296875 -8.847656 -65.960938 -9.046875 -64.796875 C -9.242188 -63.628906 -9.34375 -63.046875 -9.34375 -63.046875 C -9.34375 -61.878906 -5.453125 -61.488281 2.328125 -61.875 C 7.390625 -62.269531 15.660156 -64.019531 27.140625 -67.125 C 38.617188 -70.238281 51.070312 -73.835938 64.5 -77.921875 C 77.925781 -82.015625 89.894531 -86.007812 100.40625 -89.90625 C 103.519531 -91.070312 105.851562 -90.289062 107.40625 -87.5625 C 108.582031 -84.0625 107.613281 -81.726562 104.5 -80.5625 C 93.207031 -76.664062 80.75 -72.578125 67.125 -68.296875 C 53.507812 -64.015625 40.863281 -60.316406 29.1875 -57.203125 C 17.507812 -54.085938 8.945312 -52.144531 3.5 -51.375 Z M 38.53125 -113.25 C 53.320312 -121.03125 68.984375 -129.976562 85.515625 -140.09375 C 102.054688 -150.21875 116.84375 -160.238281 129.875 -170.15625 C 142.914062 -180.082031 151.191406 -188.742188 154.703125 -196.140625 C 149.640625 -194.585938 141.171875 -190.015625 129.296875 -182.421875 C 117.429688 -174.835938 103.617188 -165.109375 87.859375 -153.234375 C 72.097656 -141.367188 55.65625 -128.039062 38.53125 -113.25 Z M 38.53125 -113.25 "/></g></g></g><g fill="#5b2b08" fill-opacity="0.502"><g transform="translate(848.47722, 900.574787)"><g><path d="M 229.421875 -203.734375 C 230.585938 -202.953125 231.363281 -201.585938 231.75 -199.640625 C 232.144531 -197.703125 231.175781 -195.175781 228.84375 -192.0625 C 224.5625 -186.21875 217.359375 -179.40625 207.234375 -171.625 C 197.117188 -163.84375 185.441406 -155.765625 172.203125 -147.390625 C 158.972656 -139.023438 145.644531 -130.953125 132.21875 -123.171875 C 118.789062 -115.390625 106.335938 -108.382812 94.859375 -102.15625 C 83.378906 -95.925781 74.332031 -91.257812 67.71875 -88.15625 C 56.425781 -77.25 50.195312 -70.140625 49.03125 -66.828125 C 47.863281 -63.523438 47.28125 -61.875 47.28125 -61.875 C 47.675781 -61.488281 48.75 -61.097656 50.5 -60.703125 C 52.25 -60.316406 55.265625 -60.320312 59.546875 -60.71875 C 64.609375 -61.488281 72.878906 -63.332031 84.359375 -66.25 C 95.835938 -69.175781 108.289062 -72.875 121.71875 -77.34375 C 135.144531 -81.820312 147.109375 -86.007812 157.609375 -89.90625 C 159.953125 -90.675781 161.609375 -90.769531 162.578125 -90.1875 C 163.546875 -89.601562 164.226562 -88.726562 164.625 -87.5625 C 165.789062 -84.0625 164.816406 -81.726562 161.703125 -80.5625 C 150.421875 -76.28125 137.96875 -71.898438 124.34375 -67.421875 C 110.71875 -62.953125 97.96875 -59.160156 86.09375 -56.046875 C 74.226562 -52.929688 65.570312 -50.984375 60.125 -50.203125 L 54.875 -49.625 C 45.925781 -49.625 40.28125 -52.347656 37.9375 -57.796875 C 37.550781 -59.347656 37.257812 -60.898438 37.0625 -62.453125 C 36.875 -64.015625 37.363281 -66.160156 38.53125 -68.890625 C 26.851562 -62.660156 15.757812 -58.082031 5.25 -55.15625 C -5.25 -52.238281 -13.613281 -50.78125 -19.84375 -50.78125 C -24.125 -50.78125 -27.039062 -51.65625 -28.59375 -53.40625 C -30.15625 -55.164062 -31.128906 -56.429688 -31.515625 -57.203125 C -33.859375 -64.210938 -26.269531 -74.140625 -8.75 -86.984375 C 10.3125 -100.992188 25.875 -108.191406 37.9375 -108.578125 C 50.007812 -108.972656 57.988281 -106.832031 61.875 -102.15625 C 62.269531 -101.769531 62.660156 -101.285156 63.046875 -100.703125 C 63.429688 -100.117188 63.625 -99.628906 63.625 -99.234375 L 68.296875 -102.75 C 81.140625 -114.8125 95.925781 -127.164062 112.65625 -139.8125 C 129.394531 -152.457031 146.71875 -164.425781 164.625 -175.71875 C 183.6875 -187.78125 197.597656 -195.753906 206.359375 -199.640625 C 215.117188 -203.535156 220.957031 -205.382812 223.875 -205.1875 C 226.789062 -205 228.640625 -204.515625 229.421875 -203.734375 Z M 99.828125 -116.171875 C 113.835938 -123.953125 128.523438 -132.414062 143.890625 -141.5625 C 159.265625 -150.707031 173.46875 -159.851562 186.5 -169 C 199.539062 -178.144531 209.375 -186.023438 216 -192.640625 C 208.988281 -189.921875 199.160156 -184.765625 186.515625 -177.171875 C 173.867188 -169.585938 159.953125 -160.539062 144.765625 -150.03125 C 129.585938 -139.519531 114.609375 -128.234375 99.828125 -116.171875 Z M -21.015625 -60.71875 L -19.84375 -60.71875 C -12.84375 -60.71875 -2.4375 -63.148438 11.375 -68.015625 C 25.195312 -72.878906 38.53125 -79.976562 51.375 -89.3125 L 53.125 -91.0625 C 54.289062 -92.625 54.773438 -93.695312 54.578125 -94.28125 C 54.390625 -94.863281 54.296875 -95.347656 54.296875 -95.734375 C 51.953125 -98.460938 45.722656 -99.144531 35.609375 -97.78125 C 25.492188 -96.414062 12.847656 -90.09375 -2.328125 -78.8125 C -9.335938 -73.75 -14.109375 -69.757812 -16.640625 -66.84375 C -19.171875 -63.925781 -20.628906 -61.882812 -21.015625 -60.71875 Z M -21.015625 -60.71875 "/></g></g></g><g fill="#5b2b08" fill-opacity="0.502"><g transform="translate(1031.194752, 900.574787)"><g><path d="M 14.015625 -50.78125 C 6.222656 -51.5625 -0.296875 -53.019531 -5.546875 -55.15625 C -10.796875 -57.300781 -14.394531 -60.320312 -16.34375 -64.21875 C -16.726562 -66.164062 -16.921875 -68.5 -16.921875 -71.21875 C -16.921875 -73.945312 -15.367188 -77.253906 -12.265625 -81.140625 C -9.535156 -84.640625 -5.738281 -87.945312 -0.875 -91.0625 C 3.988281 -94.175781 9.335938 -97.097656 15.171875 -99.828125 L 16.34375 -100.40625 C 24.125 -103.90625 32.003906 -106.722656 39.984375 -108.859375 C 47.960938 -111.003906 54.09375 -112.273438 58.375 -112.671875 C 60.707031 -113.054688 64.597656 -113.148438 70.046875 -112.953125 C 75.492188 -112.765625 78.800781 -110.53125 79.96875 -106.25 C 80.75 -104.6875 80.648438 -102.539062 79.671875 -99.8125 C 78.703125 -97.09375 75.492188 -94.175781 70.046875 -91.0625 C 63.429688 -87.5625 54.769531 -85.710938 44.0625 -85.515625 C 33.363281 -85.328125 24.515625 -86.59375 17.515625 -89.3125 C 7.003906 -84.644531 -0.195312 -79.78125 -4.09375 -74.71875 C -6.8125 -72 -7.585938 -69.859375 -6.421875 -68.296875 C -5.640625 -66.742188 -3.5 -65.285156 0 -63.921875 C 3.5 -62.554688 7.390625 -61.679688 11.671875 -61.296875 C 19.066406 -60.910156 35.507812 -62.757812 61 -66.84375 C 86.488281 -70.925781 116.941406 -78.804688 152.359375 -90.484375 C 155.859375 -91.265625 158 -90.097656 158.78125 -86.984375 C 160.34375 -83.484375 159.367188 -81.34375 155.859375 -80.5625 C 121.617188 -69.269531 91.847656 -61.484375 66.546875 -57.203125 C 41.253906 -52.921875 23.742188 -50.78125 14.015625 -50.78125 Z M 33.859375 -96.328125 C 39.304688 -95.929688 44.945312 -96.023438 50.78125 -96.609375 C 56.625 -97.191406 61.296875 -98.457031 64.796875 -100.40625 L 68.296875 -102.75 L 59.546875 -102.75 C 53.316406 -101.96875 44.753906 -99.828125 33.859375 -96.328125 Z M 33.859375 -96.328125 "/></g></g></g><g fill="#5b2b08" fill-opacity="0.502"><g transform="translate(1207.490812, 900.574787)"><g><path d="M -32.6875 -49.625 C -34.25 -49.625 -35.613281 -50.207031 -36.78125 -51.375 C -39.113281 -53.707031 -38.914062 -56.039062 -36.1875 -58.375 L 18.09375 -111.5 C 20.425781 -113.832031 22.765625 -113.832031 25.109375 -111.5 C 27.828125 -109.164062 27.828125 -106.632812 25.109375 -103.90625 L 7.59375 -86.984375 C 20.820312 -94.765625 34.242188 -101.570312 47.859375 -107.40625 C 61.484375 -113.25 71.992188 -114.804688 79.390625 -112.078125 C 82.117188 -110.910156 83.867188 -109.546875 84.640625 -107.984375 C 85.421875 -106.429688 86.003906 -105.070312 86.390625 -103.90625 C 87.171875 -100.019531 85.90625 -95.835938 82.59375 -91.359375 C 79.289062 -86.878906 75.890625 -82.890625 72.390625 -79.390625 C 61.878906 -69.660156 56.234375 -63.628906 55.453125 -61.296875 L 60.125 -61.875 C 62.851562 -62.269531 69.757812 -63.535156 80.84375 -65.671875 C 91.9375 -67.816406 105.753906 -71.03125 122.296875 -75.3125 C 138.835938 -79.59375 156.445312 -84.648438 175.125 -90.484375 C 178.238281 -91.265625 180.378906 -90.097656 181.546875 -86.984375 C 182.328125 -83.484375 181.160156 -81.34375 178.046875 -80.5625 C 158.972656 -74.71875 141.066406 -69.65625 124.328125 -65.375 C 107.597656 -61.09375 93.585938 -57.785156 82.296875 -55.453125 C 71.015625 -53.117188 64.015625 -51.757812 61.296875 -51.375 C 59.347656 -50.976562 56.523438 -50.972656 52.828125 -51.359375 C 49.128906 -51.753906 46.503906 -53.507812 44.953125 -56.625 C 43.390625 -60.125 44.359375 -64.207031 47.859375 -68.875 C 51.367188 -73.550781 57.207031 -79.585938 65.375 -86.984375 C 73.164062 -94.765625 76.671875 -99.820312 75.890625 -102.15625 C 71.992188 -103.71875 65.863281 -103.035156 57.5 -100.109375 C 49.132812 -97.191406 39.796875 -92.910156 29.484375 -87.265625 C 19.171875 -81.628906 8.757812 -75.5 -1.75 -68.875 C -12.257812 -62.257812 -21.597656 -56.035156 -29.765625 -50.203125 C -30.546875 -49.816406 -31.519531 -49.625 -32.6875 -49.625 Z M -32.6875 -49.625 "/></g></g></g><g transform="matrix(1, 0, 0, 1, 0, 0.000000000000112861)"><g clip-path="url(#9909e17408)"><g mask="url(#81579bf88c)"><g transform="matrix(1, 0, 0, 1, 0, 0.000000000000112861)"><g clip-path="url(#174dd70c2c)"><g clip-path="url(#73105079ea)"><rect x="-805.2" fill="url(#2c517ddbd1)" width="3110.4" height="3110.399862" y="-805.199964"/></g></g></g></g></g></g></g></g></svg>