<svg xmlns="http://www.w3.org/2000/svg" xmlns:xlink="http://www.w3.org/1999/xlink" width="2000" zoomAndPan="magnify" viewBox="0 0 1500 1499.999933" height="2000" preserveAspectRatio="xMidYMid meet" version="1.0"><defs><g/><clipPath id="e5cecd0ee0"><path d="M 0.0390625 57 L 311 57 L 311 68 L 0.0390625 68 Z M 0.0390625 57 " clip-rule="nonzero"/></clipPath><clipPath id="7bb917a1bc"><rect x="0" width="1360" y="0" height="104"/></clipPath></defs><g transform="matrix(1, 0, 0, 1, 71, 698)"><g clip-path="url(#7bb917a1bc)"><g clip-path="url(#e5cecd0ee0)"><path stroke-linecap="butt" transform="matrix(1.308634, 0, 0, 1.308634, 5.310542, 57.125521)" fill="none" stroke-linejoin="miter" d="M -0.00148875 3.999479 L 229.116805 3.999479 " stroke="#000000" stroke-width="8" stroke-opacity="1" stroke-miterlimit="4"/></g><g fill="#a85b23" fill-opacity="0.302"><g transform="translate(343.199407, 82.668385)"><g><path d="M 3.28125 0 L 3.28125 -1.6875 L 7.703125 -1.6875 C 8.578125 -1.6875 9.015625 -2.0625 9.015625 -2.8125 L 9.015625 -56.328125 C 9.015625 -57.078125 8.578125 -57.453125 7.703125 -57.453125 L 3.28125 -57.453125 L 3.28125 -59.140625 L 25.25 -59.140625 C 29.945312 -59.140625 33.96875 -57.851562 37.3125 -55.28125 C 40.664062 -52.71875 42.34375 -49.40625 42.34375 -45.34375 C 42.34375 -42.207031 41.507812 -39.46875 39.84375 -37.125 C 38.1875 -34.78125 35.984375 -33.015625 33.234375 -31.828125 C 37.171875 -30.953125 40.375 -29.164062 42.84375 -26.46875 C 45.320312 -23.78125 46.5625 -20.195312 46.5625 -15.71875 C 46.5625 -11.25 44.710938 -7.507812 41.015625 -4.5 C 37.328125 -1.5 32.851562 0 27.59375 0 Z M 27.125 -30.140625 L 16.703125 -30.140625 L 16.703125 -2.625 L 27.125 -2.625 C 30.882812 -2.625 33.8125 -4 35.90625 -6.75 C 38 -9.507812 39.046875 -12.734375 39.046875 -16.421875 C 39.046875 -20.117188 38 -23.328125 35.90625 -26.046875 C 33.8125 -28.773438 30.882812 -30.140625 27.125 -30.140625 Z M 23.28125 -56.515625 L 16.703125 -56.515625 L 16.703125 -32.484375 L 23.84375 -32.484375 C 27.539062 -32.484375 30.296875 -33.734375 32.109375 -36.234375 C 33.921875 -38.734375 34.828125 -41.65625 34.828125 -45 C 34.828125 -48.351562 33.882812 -51.109375 32 -53.265625 C 30.125 -55.429688 27.21875 -56.515625 23.28125 -56.515625 Z M 23.28125 -56.515625 "/></g></g></g><g fill="#a85b23" fill-opacity="0.302"><g transform="translate(396.520459, 82.668385)"><g><path d="M 3.28125 0 L 3.28125 -1.6875 L 7.703125 -1.6875 C 8.578125 -1.6875 9.015625 -2.125 9.015625 -3 L 9.015625 -56.328125 C 9.015625 -57.078125 8.578125 -57.453125 7.703125 -57.453125 L 3.28125 -57.453125 L 3.28125 -59.140625 L 33.046875 -59.140625 C 37.984375 -59.140625 41.457031 -59.421875 43.46875 -59.984375 C 42.90625 -57.421875 42.625 -53.851562 42.625 -49.28125 L 42.625 -44.875 L 40.453125 -44.875 L 39.046875 -54.453125 C 38.921875 -55.828125 38.046875 -56.515625 36.421875 -56.515625 L 16.703125 -56.515625 L 16.703125 -30.890625 L 35.578125 -30.890625 C 36.328125 -30.890625 36.765625 -31.328125 36.890625 -32.203125 L 37.359375 -38.015625 L 39.046875 -38.015625 L 39.046875 -21.125 L 37.359375 -21.125 L 36.890625 -26.9375 C 36.765625 -27.8125 36.328125 -28.25 35.578125 -28.25 L 16.703125 -28.25 L 16.703125 -2.625 L 37.734375 -2.625 C 39.359375 -2.625 40.234375 -3.3125 40.359375 -4.6875 L 41.78125 -15.671875 L 43.9375 -15.671875 L 43.9375 -11.265625 C 43.9375 -5.753906 44.21875 -1.71875 44.78125 0.84375 C 42.78125 0.28125 39.304688 0 34.359375 0 Z M 3.28125 0 "/></g></g></g><g fill="#a85b23" fill-opacity="0.302"><g transform="translate(450.404754, 82.668385)"><g><path d="M 54.078125 0 L 34.828125 0 L 34.828125 -1.6875 L 40.921875 -1.6875 L 34.359375 -19.8125 L 13.703125 -19.8125 L 7.140625 -1.6875 L 13.234375 -1.6875 L 13.234375 0 L -0.9375 0 L -0.9375 -1.6875 L 2.53125 -1.6875 C 3.40625 -1.6875 4 -2.125 4.3125 -3 L 24.96875 -59.140625 L 28.15625 -59.140625 L 48.8125 -3 C 49.125 -2.125 49.71875 -1.6875 50.59375 -1.6875 L 54.078125 -1.6875 Z M 24.125 -48.0625 L 14.734375 -22.4375 L 33.421875 -22.4375 Z M 24.125 -48.0625 "/></g></g></g><g fill="#a85b23" fill-opacity="0.302"><g transform="translate(508.888877, 82.668385)"><g><path d="M 55.296875 -59.140625 L 55.296875 -57.453125 L 50.875 -57.453125 C 50 -57.453125 49.5625 -57.078125 49.5625 -56.328125 L 49.5625 -18.3125 C 49.5625 -11.800781 47.679688 -6.929688 43.921875 -3.703125 C 40.171875 -0.484375 35.132812 1.125 28.8125 1.125 C 22.5 1.125 17.460938 -0.484375 13.703125 -3.703125 C 9.953125 -6.929688 8.078125 -11.800781 8.078125 -18.3125 L 8.078125 -56.328125 C 8.078125 -57.078125 7.640625 -57.453125 6.765625 -57.453125 L 2.34375 -57.453125 L 2.34375 -59.140625 L 21.5 -59.140625 L 21.5 -57.453125 L 17.078125 -57.453125 C 16.203125 -57.453125 15.765625 -57.078125 15.765625 -56.328125 L 15.765625 -17.65625 C 15.765625 -12.394531 17.0625 -8.492188 19.65625 -5.953125 C 22.257812 -3.421875 25.796875 -2.15625 30.265625 -2.15625 C 34.742188 -2.15625 38.546875 -3.421875 41.671875 -5.953125 C 44.804688 -8.492188 46.375 -12.613281 46.375 -18.3125 L 46.375 -56.328125 C 46.375 -57.078125 45.9375 -57.453125 45.0625 -57.453125 L 40.640625 -57.453125 L 40.640625 -59.140625 Z M 55.296875 -59.140625 "/></g></g></g><g fill="#a85b23" fill-opacity="0.302"><g transform="translate(570.940214, 82.668385)"><g><path d="M 27.3125 -56.515625 L 27.3125 -2.8125 C 27.3125 -2.0625 27.75 -1.6875 28.625 -1.6875 L 36.796875 -1.6875 L 36.796875 0 L 10.140625 0 L 10.140625 -1.6875 L 18.3125 -1.6875 C 19.1875 -1.6875 19.625 -2.0625 19.625 -2.8125 L 19.625 -56.515625 L 7.515625 -56.515625 C 5.878906 -56.515625 5 -55.828125 4.875 -54.453125 L 3.46875 -43.46875 L 1.3125 -43.46875 L 1.3125 -47.875 C 1.3125 -53.382812 1.03125 -57.421875 0.46875 -59.984375 C 2.46875 -59.421875 5.941406 -59.140625 10.890625 -59.140625 L 36.046875 -59.140625 C 40.992188 -59.140625 44.46875 -59.421875 46.46875 -59.984375 C 45.90625 -57.421875 45.625 -53.382812 45.625 -47.875 L 45.625 -43.46875 L 43.46875 -43.46875 L 42.0625 -54.453125 C 41.9375 -55.828125 41.054688 -56.515625 39.421875 -56.515625 Z M 27.3125 -56.515625 "/></g></g></g><g fill="#a85b23" fill-opacity="0.302"><g transform="translate(623.228652, 82.668385)"><g><path d="M 36.234375 -59.140625 L 49 -59.140625 L 49 -57.453125 L 45.53125 -57.453125 C 44.65625 -57.453125 44.0625 -57.015625 43.75 -56.140625 L 29.390625 -21.5 L 29.390625 -3 C 29.390625 -2.125 29.828125 -1.6875 30.703125 -1.6875 L 37.453125 -1.6875 L 37.453125 0 L 13.609375 0 L 13.609375 -1.6875 L 20.375 -1.6875 C 21.25 -1.6875 21.6875 -2.125 21.6875 -3 L 21.6875 -21.59375 L 5.71875 -56.140625 C 5.28125 -57.015625 4.6875 -57.453125 3.9375 -57.453125 L 0.46875 -57.453125 L 0.46875 -59.140625 L 18.40625 -59.140625 L 18.40625 -57.453125 L 13.703125 -57.453125 L 28.0625 -26.28125 L 40.921875 -57.453125 L 36.234375 -57.453125 Z M 36.234375 -59.140625 "/></g></g></g><g fill="#a85b23" fill-opacity="0.302"><g transform="translate(678.05169, 82.668385)"><g/></g></g><g fill="#a85b23" fill-opacity="0.302"><g transform="translate(706.871594, 82.668385)"><g><path d="M 23.28125 1.125 C 19.144531 1.125 15.015625 0 10.890625 -2.25 C 9.515625 -2.9375 8.578125 -3.28125 8.078125 -3.28125 C 7.140625 -3.28125 6.640625 -2.625 6.578125 -1.3125 L 6.484375 0 L 4.6875 0 L 4.6875 -15.671875 L 6.390625 -15.671875 C 6.953125 -10.859375 8.75 -7.304688 11.78125 -5.015625 C 14.8125 -2.734375 18.40625 -1.59375 22.5625 -1.59375 C 26.726562 -1.59375 29.890625 -2.71875 32.046875 -4.96875 C 34.210938 -7.226562 35.296875 -9.890625 35.296875 -12.953125 C 35.296875 -17.835938 32.476562 -21.53125 26.84375 -24.03125 L 15.671875 -29 C 12.296875 -30.507812 9.757812 -32.5625 8.0625 -35.15625 C 6.375 -37.75 5.53125 -40.550781 5.53125 -43.5625 C 5.53125 -48.125 7.0625 -52.046875 10.125 -55.328125 C 13.195312 -58.617188 17.613281 -60.265625 23.375 -60.265625 C 26.75 -60.265625 30.222656 -59.140625 33.796875 -56.890625 C 34.984375 -56.203125 35.796875 -55.859375 36.234375 -55.859375 C 37.046875 -55.859375 37.484375 -56.515625 37.546875 -57.828125 L 37.640625 -59.703125 L 39.421875 -59.703125 L 39.421875 -43.46875 L 37.734375 -43.46875 C 37.234375 -48.28125 35.679688 -51.828125 33.078125 -54.109375 C 30.484375 -56.398438 27.328125 -57.546875 23.609375 -57.546875 C 19.890625 -57.546875 17.007812 -56.523438 14.96875 -54.484375 C 12.9375 -52.453125 11.921875 -50.140625 11.921875 -47.546875 C 11.921875 -44.953125 12.625 -42.617188 14.03125 -40.546875 C 15.4375 -38.484375 17.519531 -36.859375 20.28125 -35.671875 L 31.546875 -30.703125 C 35.296875 -29.003906 38.125 -26.796875 40.03125 -24.078125 C 41.945312 -21.359375 42.90625 -18.429688 42.90625 -15.296875 C 42.90625 -10.859375 41.117188 -7.007812 37.546875 -3.75 C 33.984375 -0.5 29.226562 1.125 23.28125 1.125 Z M 23.28125 1.125 "/></g></g></g><g fill="#a85b23" fill-opacity="0.302"><g transform="translate(758.878381, 82.668385)"><g><path d="M 27.3125 -56.515625 L 27.3125 -2.8125 C 27.3125 -2.0625 27.75 -1.6875 28.625 -1.6875 L 36.796875 -1.6875 L 36.796875 0 L 10.140625 0 L 10.140625 -1.6875 L 18.3125 -1.6875 C 19.1875 -1.6875 19.625 -2.0625 19.625 -2.8125 L 19.625 -56.515625 L 7.515625 -56.515625 C 5.878906 -56.515625 5 -55.828125 4.875 -54.453125 L 3.46875 -43.46875 L 1.3125 -43.46875 L 1.3125 -47.875 C 1.3125 -53.382812 1.03125 -57.421875 0.46875 -59.984375 C 2.46875 -59.421875 5.941406 -59.140625 10.890625 -59.140625 L 36.046875 -59.140625 C 40.992188 -59.140625 44.46875 -59.421875 46.46875 -59.984375 C 45.90625 -57.421875 45.625 -53.382812 45.625 -47.875 L 45.625 -43.46875 L 43.46875 -43.46875 L 42.0625 -54.453125 C 41.9375 -55.828125 41.054688 -56.515625 39.421875 -56.515625 Z M 27.3125 -56.515625 "/></g></g></g><g fill="#a85b23" fill-opacity="0.302"><g transform="translate(811.166839, 82.668385)"><g><path d="M 55.296875 -59.140625 L 55.296875 -57.453125 L 50.875 -57.453125 C 50 -57.453125 49.5625 -57.078125 49.5625 -56.328125 L 49.5625 -18.3125 C 49.5625 -11.800781 47.679688 -6.929688 43.921875 -3.703125 C 40.171875 -0.484375 35.132812 1.125 28.8125 1.125 C 22.5 1.125 17.460938 -0.484375 13.703125 -3.703125 C 9.953125 -6.929688 8.078125 -11.800781 8.078125 -18.3125 L 8.078125 -56.328125 C 8.078125 -57.078125 7.640625 -57.453125 6.765625 -57.453125 L 2.34375 -57.453125 L 2.34375 -59.140625 L 21.5 -59.140625 L 21.5 -57.453125 L 17.078125 -57.453125 C 16.203125 -57.453125 15.765625 -57.078125 15.765625 -56.328125 L 15.765625 -17.65625 C 15.765625 -12.394531 17.0625 -8.492188 19.65625 -5.953125 C 22.257812 -3.421875 25.796875 -2.15625 30.265625 -2.15625 C 34.742188 -2.15625 38.546875 -3.421875 41.671875 -5.953125 C 44.804688 -8.492188 46.375 -12.613281 46.375 -18.3125 L 46.375 -56.328125 C 46.375 -57.078125 45.9375 -57.453125 45.0625 -57.453125 L 40.640625 -57.453125 L 40.640625 -59.140625 Z M 55.296875 -59.140625 "/></g></g></g><g fill="#a85b23" fill-opacity="0.302"><g transform="translate(873.218176, 82.668385)"><g><path d="M 3.28125 -57.453125 L 3.28125 -59.140625 L 27.125 -59.140625 C 35.070312 -59.140625 41.550781 -56.507812 46.5625 -51.25 C 51.570312 -46 54.078125 -38.769531 54.078125 -29.5625 C 54.078125 -20.363281 51.570312 -13.132812 46.5625 -7.875 C 41.550781 -2.625 35.070312 0 27.125 0 L 3.28125 0 L 3.28125 -1.6875 L 7.703125 -1.6875 C 8.578125 -1.6875 9.015625 -2.0625 9.015625 -2.8125 L 9.015625 -56.328125 C 9.015625 -57.078125 8.578125 -57.453125 7.703125 -57.453125 Z M 27.125 -56.515625 L 16.703125 -56.515625 L 16.703125 -2.625 L 27.125 -2.625 C 32.507812 -2.625 37.015625 -5.03125 40.640625 -9.84375 C 44.273438 -14.664062 46.09375 -21.238281 46.09375 -29.5625 C 46.09375 -37.894531 44.273438 -44.46875 40.640625 -49.28125 C 37.015625 -54.101562 32.507812 -56.515625 27.125 -56.515625 Z M 27.125 -56.515625 "/></g></g></g><g fill="#a85b23" fill-opacity="0.302"><g transform="translate(935.926666, 82.668385)"><g><path d="M 9.015625 -3 L 9.015625 -56.328125 C 9.015625 -57.078125 8.578125 -57.453125 7.703125 -57.453125 L 3.28125 -57.453125 L 3.28125 -59.140625 L 22.4375 -59.140625 L 22.4375 -57.453125 L 18.03125 -57.453125 C 17.144531 -57.453125 16.703125 -57.078125 16.703125 -56.328125 L 16.703125 -3 C 16.703125 -2.125 17.144531 -1.6875 18.03125 -1.6875 L 22.4375 -1.6875 L 22.4375 0 L 3.28125 0 L 3.28125 -1.6875 L 7.703125 -1.6875 C 8.578125 -1.6875 9.015625 -2.125 9.015625 -3 Z M 9.015625 -3 "/></g></g></g><g fill="#a85b23" fill-opacity="0.302"><g transform="translate(966.999539, 82.668385)"><g><path d="M 10.75 -7.03125 C 5.769531 -12.476562 3.28125 -19.988281 3.28125 -29.5625 C 3.28125 -39.144531 5.769531 -46.65625 10.75 -52.09375 C 15.726562 -57.539062 22.207031 -60.265625 30.1875 -60.265625 C 38.164062 -60.265625 44.640625 -57.539062 49.609375 -52.09375 C 54.585938 -46.65625 57.078125 -39.144531 57.078125 -29.5625 C 57.078125 -19.988281 54.585938 -12.476562 49.609375 -7.03125 C 44.640625 -1.59375 38.164062 1.125 30.1875 1.125 C 22.207031 1.125 15.726562 -1.59375 10.75 -7.03125 Z M 16.65625 -50.21875 C 13.0625 -45.15625 11.265625 -38.269531 11.265625 -29.5625 C 11.265625 -20.863281 13.0625 -13.976562 16.65625 -8.90625 C 20.257812 -3.84375 24.75 -1.3125 30.125 -1.3125 C 35.507812 -1.3125 40.015625 -3.84375 43.640625 -8.90625 C 47.273438 -13.976562 49.09375 -20.863281 49.09375 -29.5625 C 49.09375 -38.269531 47.273438 -45.15625 43.640625 -50.21875 C 40.015625 -55.289062 35.507812 -57.828125 30.125 -57.828125 C 24.75 -57.828125 20.257812 -55.289062 16.65625 -50.21875 Z M 16.65625 -50.21875 "/></g></g></g><g fill="#a85b23" fill-opacity="0.502"><g transform="translate(341.997208, 81.729127)"><g><path d="M 3.28125 0 L 3.28125 -1.6875 L 7.703125 -1.6875 C 8.578125 -1.6875 9.015625 -2.0625 9.015625 -2.8125 L 9.015625 -56.328125 C 9.015625 -57.078125 8.578125 -57.453125 7.703125 -57.453125 L 3.28125 -57.453125 L 3.28125 -59.140625 L 25.25 -59.140625 C 29.945312 -59.140625 33.96875 -57.851562 37.3125 -55.28125 C 40.664062 -52.71875 42.34375 -49.40625 42.34375 -45.34375 C 42.34375 -42.207031 41.507812 -39.46875 39.84375 -37.125 C 38.1875 -34.78125 35.984375 -33.015625 33.234375 -31.828125 C 37.171875 -30.953125 40.375 -29.164062 42.84375 -26.46875 C 45.320312 -23.78125 46.5625 -20.195312 46.5625 -15.71875 C 46.5625 -11.25 44.710938 -7.507812 41.015625 -4.5 C 37.328125 -1.5 32.851562 0 27.59375 0 Z M 27.125 -30.140625 L 16.703125 -30.140625 L 16.703125 -2.625 L 27.125 -2.625 C 30.882812 -2.625 33.8125 -4 35.90625 -6.75 C 38 -9.507812 39.046875 -12.734375 39.046875 -16.421875 C 39.046875 -20.117188 38 -23.328125 35.90625 -26.046875 C 33.8125 -28.773438 30.882812 -30.140625 27.125 -30.140625 Z M 23.28125 -56.515625 L 16.703125 -56.515625 L 16.703125 -32.484375 L 23.84375 -32.484375 C 27.539062 -32.484375 30.296875 -33.734375 32.109375 -36.234375 C 33.921875 -38.734375 34.828125 -41.65625 34.828125 -45 C 34.828125 -48.351562 33.882812 -51.109375 32 -53.265625 C 30.125 -55.429688 27.21875 -56.515625 23.28125 -56.515625 Z M 23.28125 -56.515625 "/></g></g></g><g fill="#a85b23" fill-opacity="0.502"><g transform="translate(395.318261, 81.729127)"><g><path d="M 3.28125 0 L 3.28125 -1.6875 L 7.703125 -1.6875 C 8.578125 -1.6875 9.015625 -2.125 9.015625 -3 L 9.015625 -56.328125 C 9.015625 -57.078125 8.578125 -57.453125 7.703125 -57.453125 L 3.28125 -57.453125 L 3.28125 -59.140625 L 33.046875 -59.140625 C 37.984375 -59.140625 41.457031 -59.421875 43.46875 -59.984375 C 42.90625 -57.421875 42.625 -53.851562 42.625 -49.28125 L 42.625 -44.875 L 40.453125 -44.875 L 39.046875 -54.453125 C 38.921875 -55.828125 38.046875 -56.515625 36.421875 -56.515625 L 16.703125 -56.515625 L 16.703125 -30.890625 L 35.578125 -30.890625 C 36.328125 -30.890625 36.765625 -31.328125 36.890625 -32.203125 L 37.359375 -38.015625 L 39.046875 -38.015625 L 39.046875 -21.125 L 37.359375 -21.125 L 36.890625 -26.9375 C 36.765625 -27.8125 36.328125 -28.25 35.578125 -28.25 L 16.703125 -28.25 L 16.703125 -2.625 L 37.734375 -2.625 C 39.359375 -2.625 40.234375 -3.3125 40.359375 -4.6875 L 41.78125 -15.671875 L 43.9375 -15.671875 L 43.9375 -11.265625 C 43.9375 -5.753906 44.21875 -1.71875 44.78125 0.84375 C 42.78125 0.28125 39.304688 0 34.359375 0 Z M 3.28125 0 "/></g></g></g><g fill="#a85b23" fill-opacity="0.502"><g transform="translate(449.202556, 81.729127)"><g><path d="M 54.078125 0 L 34.828125 0 L 34.828125 -1.6875 L 40.921875 -1.6875 L 34.359375 -19.8125 L 13.703125 -19.8125 L 7.140625 -1.6875 L 13.234375 -1.6875 L 13.234375 0 L -0.9375 0 L -0.9375 -1.6875 L 2.53125 -1.6875 C 3.40625 -1.6875 4 -2.125 4.3125 -3 L 24.96875 -59.140625 L 28.15625 -59.140625 L 48.8125 -3 C 49.125 -2.125 49.71875 -1.6875 50.59375 -1.6875 L 54.078125 -1.6875 Z M 24.125 -48.0625 L 14.734375 -22.4375 L 33.421875 -22.4375 Z M 24.125 -48.0625 "/></g></g></g><g fill="#a85b23" fill-opacity="0.502"><g transform="translate(507.686679, 81.729127)"><g><path d="M 55.296875 -59.140625 L 55.296875 -57.453125 L 50.875 -57.453125 C 50 -57.453125 49.5625 -57.078125 49.5625 -56.328125 L 49.5625 -18.3125 C 49.5625 -11.800781 47.679688 -6.929688 43.921875 -3.703125 C 40.171875 -0.484375 35.132812 1.125 28.8125 1.125 C 22.5 1.125 17.460938 -0.484375 13.703125 -3.703125 C 9.953125 -6.929688 8.078125 -11.800781 8.078125 -18.3125 L 8.078125 -56.328125 C 8.078125 -57.078125 7.640625 -57.453125 6.765625 -57.453125 L 2.34375 -57.453125 L 2.34375 -59.140625 L 21.5 -59.140625 L 21.5 -57.453125 L 17.078125 -57.453125 C 16.203125 -57.453125 15.765625 -57.078125 15.765625 -56.328125 L 15.765625 -17.65625 C 15.765625 -12.394531 17.0625 -8.492188 19.65625 -5.953125 C 22.257812 -3.421875 25.796875 -2.15625 30.265625 -2.15625 C 34.742188 -2.15625 38.546875 -3.421875 41.671875 -5.953125 C 44.804688 -8.492188 46.375 -12.613281 46.375 -18.3125 L 46.375 -56.328125 C 46.375 -57.078125 45.9375 -57.453125 45.0625 -57.453125 L 40.640625 -57.453125 L 40.640625 -59.140625 Z M 55.296875 -59.140625 "/></g></g></g><g fill="#a85b23" fill-opacity="0.502"><g transform="translate(569.738016, 81.729127)"><g><path d="M 27.3125 -56.515625 L 27.3125 -2.8125 C 27.3125 -2.0625 27.75 -1.6875 28.625 -1.6875 L 36.796875 -1.6875 L 36.796875 0 L 10.140625 0 L 10.140625 -1.6875 L 18.3125 -1.6875 C 19.1875 -1.6875 19.625 -2.0625 19.625 -2.8125 L 19.625 -56.515625 L 7.515625 -56.515625 C 5.878906 -56.515625 5 -55.828125 4.875 -54.453125 L 3.46875 -43.46875 L 1.3125 -43.46875 L 1.3125 -47.875 C 1.3125 -53.382812 1.03125 -57.421875 0.46875 -59.984375 C 2.46875 -59.421875 5.941406 -59.140625 10.890625 -59.140625 L 36.046875 -59.140625 C 40.992188 -59.140625 44.46875 -59.421875 46.46875 -59.984375 C 45.90625 -57.421875 45.625 -53.382812 45.625 -47.875 L 45.625 -43.46875 L 43.46875 -43.46875 L 42.0625 -54.453125 C 41.9375 -55.828125 41.054688 -56.515625 39.421875 -56.515625 Z M 27.3125 -56.515625 "/></g></g></g><g fill="#a85b23" fill-opacity="0.502"><g transform="translate(622.026454, 81.729127)"><g><path d="M 36.234375 -59.140625 L 49 -59.140625 L 49 -57.453125 L 45.53125 -57.453125 C 44.65625 -57.453125 44.0625 -57.015625 43.75 -56.140625 L 29.390625 -21.5 L 29.390625 -3 C 29.390625 -2.125 29.828125 -1.6875 30.703125 -1.6875 L 37.453125 -1.6875 L 37.453125 0 L 13.609375 0 L 13.609375 -1.6875 L 20.375 -1.6875 C 21.25 -1.6875 21.6875 -2.125 21.6875 -3 L 21.6875 -21.59375 L 5.71875 -56.140625 C 5.28125 -57.015625 4.6875 -57.453125 3.9375 -57.453125 L 0.46875 -57.453125 L 0.46875 -59.140625 L 18.40625 -59.140625 L 18.40625 -57.453125 L 13.703125 -57.453125 L 28.0625 -26.28125 L 40.921875 -57.453125 L 36.234375 -57.453125 Z M 36.234375 -59.140625 "/></g></g></g><g fill="#a85b23" fill-opacity="0.502"><g transform="translate(676.849492, 81.729127)"><g/></g></g><g fill="#a85b23" fill-opacity="0.502"><g transform="translate(705.669396, 81.729127)"><g><path d="M 23.28125 1.125 C 19.144531 1.125 15.015625 0 10.890625 -2.25 C 9.515625 -2.9375 8.578125 -3.28125 8.078125 -3.28125 C 7.140625 -3.28125 6.640625 -2.625 6.578125 -1.3125 L 6.484375 0 L 4.6875 0 L 4.6875 -15.671875 L 6.390625 -15.671875 C 6.953125 -10.859375 8.75 -7.304688 11.78125 -5.015625 C 14.8125 -2.734375 18.40625 -1.59375 22.5625 -1.59375 C 26.726562 -1.59375 29.890625 -2.71875 32.046875 -4.96875 C 34.210938 -7.226562 35.296875 -9.890625 35.296875 -12.953125 C 35.296875 -17.835938 32.476562 -21.53125 26.84375 -24.03125 L 15.671875 -29 C 12.296875 -30.507812 9.757812 -32.5625 8.0625 -35.15625 C 6.375 -37.75 5.53125 -40.550781 5.53125 -43.5625 C 5.53125 -48.125 7.0625 -52.046875 10.125 -55.328125 C 13.195312 -58.617188 17.613281 -60.265625 23.375 -60.265625 C 26.75 -60.265625 30.222656 -59.140625 33.796875 -56.890625 C 34.984375 -56.203125 35.796875 -55.859375 36.234375 -55.859375 C 37.046875 -55.859375 37.484375 -56.515625 37.546875 -57.828125 L 37.640625 -59.703125 L 39.421875 -59.703125 L 39.421875 -43.46875 L 37.734375 -43.46875 C 37.234375 -48.28125 35.679688 -51.828125 33.078125 -54.109375 C 30.484375 -56.398438 27.328125 -57.546875 23.609375 -57.546875 C 19.890625 -57.546875 17.007812 -56.523438 14.96875 -54.484375 C 12.9375 -52.453125 11.921875 -50.140625 11.921875 -47.546875 C 11.921875 -44.953125 12.625 -42.617188 14.03125 -40.546875 C 15.4375 -38.484375 17.519531 -36.859375 20.28125 -35.671875 L 31.546875 -30.703125 C 35.296875 -29.003906 38.125 -26.796875 40.03125 -24.078125 C 41.945312 -21.359375 42.90625 -18.429688 42.90625 -15.296875 C 42.90625 -10.859375 41.117188 -7.007812 37.546875 -3.75 C 33.984375 -0.5 29.226562 1.125 23.28125 1.125 Z M 23.28125 1.125 "/></g></g></g><g fill="#a85b23" fill-opacity="0.502"><g transform="translate(757.676183, 81.729127)"><g><path d="M 27.3125 -56.515625 L 27.3125 -2.8125 C 27.3125 -2.0625 27.75 -1.6875 28.625 -1.6875 L 36.796875 -1.6875 L 36.796875 0 L 10.140625 0 L 10.140625 -1.6875 L 18.3125 -1.6875 C 19.1875 -1.6875 19.625 -2.0625 19.625 -2.8125 L 19.625 -56.515625 L 7.515625 -56.515625 C 5.878906 -56.515625 5 -55.828125 4.875 -54.453125 L 3.46875 -43.46875 L 1.3125 -43.46875 L 1.3125 -47.875 C 1.3125 -53.382812 1.03125 -57.421875 0.46875 -59.984375 C 2.46875 -59.421875 5.941406 -59.140625 10.890625 -59.140625 L 36.046875 -59.140625 C 40.992188 -59.140625 44.46875 -59.421875 46.46875 -59.984375 C 45.90625 -57.421875 45.625 -53.382812 45.625 -47.875 L 45.625 -43.46875 L 43.46875 -43.46875 L 42.0625 -54.453125 C 41.9375 -55.828125 41.054688 -56.515625 39.421875 -56.515625 Z M 27.3125 -56.515625 "/></g></g></g><g fill="#a85b23" fill-opacity="0.502"><g transform="translate(809.964641, 81.729127)"><g><path d="M 55.296875 -59.140625 L 55.296875 -57.453125 L 50.875 -57.453125 C 50 -57.453125 49.5625 -57.078125 49.5625 -56.328125 L 49.5625 -18.3125 C 49.5625 -11.800781 47.679688 -6.929688 43.921875 -3.703125 C 40.171875 -0.484375 35.132812 1.125 28.8125 1.125 C 22.5 1.125 17.460938 -0.484375 13.703125 -3.703125 C 9.953125 -6.929688 8.078125 -11.800781 8.078125 -18.3125 L 8.078125 -56.328125 C 8.078125 -57.078125 7.640625 -57.453125 6.765625 -57.453125 L 2.34375 -57.453125 L 2.34375 -59.140625 L 21.5 -59.140625 L 21.5 -57.453125 L 17.078125 -57.453125 C 16.203125 -57.453125 15.765625 -57.078125 15.765625 -56.328125 L 15.765625 -17.65625 C 15.765625 -12.394531 17.0625 -8.492188 19.65625 -5.953125 C 22.257812 -3.421875 25.796875 -2.15625 30.265625 -2.15625 C 34.742188 -2.15625 38.546875 -3.421875 41.671875 -5.953125 C 44.804688 -8.492188 46.375 -12.613281 46.375 -18.3125 L 46.375 -56.328125 C 46.375 -57.078125 45.9375 -57.453125 45.0625 -57.453125 L 40.640625 -57.453125 L 40.640625 -59.140625 Z M 55.296875 -59.140625 "/></g></g></g><g fill="#a85b23" fill-opacity="0.502"><g transform="translate(872.015978, 81.729127)"><g><path d="M 3.28125 -57.453125 L 3.28125 -59.140625 L 27.125 -59.140625 C 35.070312 -59.140625 41.550781 -56.507812 46.5625 -51.25 C 51.570312 -46 54.078125 -38.769531 54.078125 -29.5625 C 54.078125 -20.363281 51.570312 -13.132812 46.5625 -7.875 C 41.550781 -2.625 35.070312 0 27.125 0 L 3.28125 0 L 3.28125 -1.6875 L 7.703125 -1.6875 C 8.578125 -1.6875 9.015625 -2.0625 9.015625 -2.8125 L 9.015625 -56.328125 C 9.015625 -57.078125 8.578125 -57.453125 7.703125 -57.453125 Z M 27.125 -56.515625 L 16.703125 -56.515625 L 16.703125 -2.625 L 27.125 -2.625 C 32.507812 -2.625 37.015625 -5.03125 40.640625 -9.84375 C 44.273438 -14.664062 46.09375 -21.238281 46.09375 -29.5625 C 46.09375 -37.894531 44.273438 -44.46875 40.640625 -49.28125 C 37.015625 -54.101562 32.507812 -56.515625 27.125 -56.515625 Z M 27.125 -56.515625 "/></g></g></g><g fill="#a85b23" fill-opacity="0.502"><g transform="translate(934.724467, 81.729127)"><g><path d="M 9.015625 -3 L 9.015625 -56.328125 C 9.015625 -57.078125 8.578125 -57.453125 7.703125 -57.453125 L 3.28125 -57.453125 L 3.28125 -59.140625 L 22.4375 -59.140625 L 22.4375 -57.453125 L 18.03125 -57.453125 C 17.144531 -57.453125 16.703125 -57.078125 16.703125 -56.328125 L 16.703125 -3 C 16.703125 -2.125 17.144531 -1.6875 18.03125 -1.6875 L 22.4375 -1.6875 L 22.4375 0 L 3.28125 0 L 3.28125 -1.6875 L 7.703125 -1.6875 C 8.578125 -1.6875 9.015625 -2.125 9.015625 -3 Z M 9.015625 -3 "/></g></g></g><g fill="#a85b23" fill-opacity="0.502"><g transform="translate(965.797341, 81.729127)"><g><path d="M 10.75 -7.03125 C 5.769531 -12.476562 3.28125 -19.988281 3.28125 -29.5625 C 3.28125 -39.144531 5.769531 -46.65625 10.75 -52.09375 C 15.726562 -57.539062 22.207031 -60.265625 30.1875 -60.265625 C 38.164062 -60.265625 44.640625 -57.539062 49.609375 -52.09375 C 54.585938 -46.65625 57.078125 -39.144531 57.078125 -29.5625 C 57.078125 -19.988281 54.585938 -12.476562 49.609375 -7.03125 C 44.640625 -1.59375 38.164062 1.125 30.1875 1.125 C 22.207031 1.125 15.726562 -1.59375 10.75 -7.03125 Z M 16.65625 -50.21875 C 13.0625 -45.15625 11.265625 -38.269531 11.265625 -29.5625 C 11.265625 -20.863281 13.0625 -13.976562 16.65625 -8.90625 C 20.257812 -3.84375 24.75 -1.3125 30.125 -1.3125 C 35.507812 -1.3125 40.015625 -3.84375 43.640625 -8.90625 C 47.273438 -13.976562 49.09375 -20.863281 49.09375 -29.5625 C 49.09375 -38.269531 47.273438 -45.15625 43.640625 -50.21875 C 40.015625 -55.289062 35.507812 -57.828125 30.125 -57.828125 C 24.75 -57.828125 20.257812 -55.289062 16.65625 -50.21875 Z M 16.65625 -50.21875 "/></g></g></g><g fill="#000000" fill-opacity="1"><g transform="translate(340.795013, 80.78987)"><g><path d="M 3.28125 0 L 3.28125 -1.6875 L 7.703125 -1.6875 C 8.578125 -1.6875 9.015625 -2.0625 9.015625 -2.8125 L 9.015625 -56.328125 C 9.015625 -57.078125 8.578125 -57.453125 7.703125 -57.453125 L 3.28125 -57.453125 L 3.28125 -59.140625 L 25.25 -59.140625 C 29.945312 -59.140625 33.96875 -57.851562 37.3125 -55.28125 C 40.664062 -52.71875 42.34375 -49.40625 42.34375 -45.34375 C 42.34375 -42.207031 41.507812 -39.46875 39.84375 -37.125 C 38.1875 -34.78125 35.984375 -33.015625 33.234375 -31.828125 C 37.171875 -30.953125 40.375 -29.164062 42.84375 -26.46875 C 45.320312 -23.78125 46.5625 -20.195312 46.5625 -15.71875 C 46.5625 -11.25 44.710938 -7.507812 41.015625 -4.5 C 37.328125 -1.5 32.851562 0 27.59375 0 Z M 27.125 -30.140625 L 16.703125 -30.140625 L 16.703125 -2.625 L 27.125 -2.625 C 30.882812 -2.625 33.8125 -4 35.90625 -6.75 C 38 -9.507812 39.046875 -12.734375 39.046875 -16.421875 C 39.046875 -20.117188 38 -23.328125 35.90625 -26.046875 C 33.8125 -28.773438 30.882812 -30.140625 27.125 -30.140625 Z M 23.28125 -56.515625 L 16.703125 -56.515625 L 16.703125 -32.484375 L 23.84375 -32.484375 C 27.539062 -32.484375 30.296875 -33.734375 32.109375 -36.234375 C 33.921875 -38.734375 34.828125 -41.65625 34.828125 -45 C 34.828125 -48.351562 33.882812 -51.109375 32 -53.265625 C 30.125 -55.429688 27.21875 -56.515625 23.28125 -56.515625 Z M 23.28125 -56.515625 "/></g></g></g><g fill="#000000" fill-opacity="1"><g transform="translate(394.116065, 80.78987)"><g><path d="M 3.28125 0 L 3.28125 -1.6875 L 7.703125 -1.6875 C 8.578125 -1.6875 9.015625 -2.125 9.015625 -3 L 9.015625 -56.328125 C 9.015625 -57.078125 8.578125 -57.453125 7.703125 -57.453125 L 3.28125 -57.453125 L 3.28125 -59.140625 L 33.046875 -59.140625 C 37.984375 -59.140625 41.457031 -59.421875 43.46875 -59.984375 C 42.90625 -57.421875 42.625 -53.851562 42.625 -49.28125 L 42.625 -44.875 L 40.453125 -44.875 L 39.046875 -54.453125 C 38.921875 -55.828125 38.046875 -56.515625 36.421875 -56.515625 L 16.703125 -56.515625 L 16.703125 -30.890625 L 35.578125 -30.890625 C 36.328125 -30.890625 36.765625 -31.328125 36.890625 -32.203125 L 37.359375 -38.015625 L 39.046875 -38.015625 L 39.046875 -21.125 L 37.359375 -21.125 L 36.890625 -26.9375 C 36.765625 -27.8125 36.328125 -28.25 35.578125 -28.25 L 16.703125 -28.25 L 16.703125 -2.625 L 37.734375 -2.625 C 39.359375 -2.625 40.234375 -3.3125 40.359375 -4.6875 L 41.78125 -15.671875 L 43.9375 -15.671875 L 43.9375 -11.265625 C 43.9375 -5.753906 44.21875 -1.71875 44.78125 0.84375 C 42.78125 0.28125 39.304688 0 34.359375 0 Z M 3.28125 0 "/></g></g></g><g fill="#000000" fill-opacity="1"><g transform="translate(448.00036, 80.78987)"><g><path d="M 54.078125 0 L 34.828125 0 L 34.828125 -1.6875 L 40.921875 -1.6875 L 34.359375 -19.8125 L 13.703125 -19.8125 L 7.140625 -1.6875 L 13.234375 -1.6875 L 13.234375 0 L -0.9375 0 L -0.9375 -1.6875 L 2.53125 -1.6875 C 3.40625 -1.6875 4 -2.125 4.3125 -3 L 24.96875 -59.140625 L 28.15625 -59.140625 L 48.8125 -3 C 49.125 -2.125 49.71875 -1.6875 50.59375 -1.6875 L 54.078125 -1.6875 Z M 24.125 -48.0625 L 14.734375 -22.4375 L 33.421875 -22.4375 Z M 24.125 -48.0625 "/></g></g></g><g fill="#000000" fill-opacity="1"><g transform="translate(506.484483, 80.78987)"><g><path d="M 55.296875 -59.140625 L 55.296875 -57.453125 L 50.875 -57.453125 C 50 -57.453125 49.5625 -57.078125 49.5625 -56.328125 L 49.5625 -18.3125 C 49.5625 -11.800781 47.679688 -6.929688 43.921875 -3.703125 C 40.171875 -0.484375 35.132812 1.125 28.8125 1.125 C 22.5 1.125 17.460938 -0.484375 13.703125 -3.703125 C 9.953125 -6.929688 8.078125 -11.800781 8.078125 -18.3125 L 8.078125 -56.328125 C 8.078125 -57.078125 7.640625 -57.453125 6.765625 -57.453125 L 2.34375 -57.453125 L 2.34375 -59.140625 L 21.5 -59.140625 L 21.5 -57.453125 L 17.078125 -57.453125 C 16.203125 -57.453125 15.765625 -57.078125 15.765625 -56.328125 L 15.765625 -17.65625 C 15.765625 -12.394531 17.0625 -8.492188 19.65625 -5.953125 C 22.257812 -3.421875 25.796875 -2.15625 30.265625 -2.15625 C 34.742188 -2.15625 38.546875 -3.421875 41.671875 -5.953125 C 44.804688 -8.492188 46.375 -12.613281 46.375 -18.3125 L 46.375 -56.328125 C 46.375 -57.078125 45.9375 -57.453125 45.0625 -57.453125 L 40.640625 -57.453125 L 40.640625 -59.140625 Z M 55.296875 -59.140625 "/></g></g></g><g fill="#000000" fill-opacity="1"><g transform="translate(568.53582, 80.78987)"><g><path d="M 27.3125 -56.515625 L 27.3125 -2.8125 C 27.3125 -2.0625 27.75 -1.6875 28.625 -1.6875 L 36.796875 -1.6875 L 36.796875 0 L 10.140625 0 L 10.140625 -1.6875 L 18.3125 -1.6875 C 19.1875 -1.6875 19.625 -2.0625 19.625 -2.8125 L 19.625 -56.515625 L 7.515625 -56.515625 C 5.878906 -56.515625 5 -55.828125 4.875 -54.453125 L 3.46875 -43.46875 L 1.3125 -43.46875 L 1.3125 -47.875 C 1.3125 -53.382812 1.03125 -57.421875 0.46875 -59.984375 C 2.46875 -59.421875 5.941406 -59.140625 10.890625 -59.140625 L 36.046875 -59.140625 C 40.992188 -59.140625 44.46875 -59.421875 46.46875 -59.984375 C 45.90625 -57.421875 45.625 -53.382812 45.625 -47.875 L 45.625 -43.46875 L 43.46875 -43.46875 L 42.0625 -54.453125 C 41.9375 -55.828125 41.054688 -56.515625 39.421875 -56.515625 Z M 27.3125 -56.515625 "/></g></g></g><g fill="#000000" fill-opacity="1"><g transform="translate(620.824258, 80.78987)"><g><path d="M 36.234375 -59.140625 L 49 -59.140625 L 49 -57.453125 L 45.53125 -57.453125 C 44.65625 -57.453125 44.0625 -57.015625 43.75 -56.140625 L 29.390625 -21.5 L 29.390625 -3 C 29.390625 -2.125 29.828125 -1.6875 30.703125 -1.6875 L 37.453125 -1.6875 L 37.453125 0 L 13.609375 0 L 13.609375 -1.6875 L 20.375 -1.6875 C 21.25 -1.6875 21.6875 -2.125 21.6875 -3 L 21.6875 -21.59375 L 5.71875 -56.140625 C 5.28125 -57.015625 4.6875 -57.453125 3.9375 -57.453125 L 0.46875 -57.453125 L 0.46875 -59.140625 L 18.40625 -59.140625 L 18.40625 -57.453125 L 13.703125 -57.453125 L 28.0625 -26.28125 L 40.921875 -57.453125 L 36.234375 -57.453125 Z M 36.234375 -59.140625 "/></g></g></g><g fill="#000000" fill-opacity="1"><g transform="translate(675.647296, 80.78987)"><g/></g></g><g fill="#000000" fill-opacity="1"><g transform="translate(704.4672, 80.78987)"><g><path d="M 23.28125 1.125 C 19.144531 1.125 15.015625 0 10.890625 -2.25 C 9.515625 -2.9375 8.578125 -3.28125 8.078125 -3.28125 C 7.140625 -3.28125 6.640625 -2.625 6.578125 -1.3125 L 6.484375 0 L 4.6875 0 L 4.6875 -15.671875 L 6.390625 -15.671875 C 6.953125 -10.859375 8.75 -7.304688 11.78125 -5.015625 C 14.8125 -2.734375 18.40625 -1.59375 22.5625 -1.59375 C 26.726562 -1.59375 29.890625 -2.71875 32.046875 -4.96875 C 34.210938 -7.226562 35.296875 -9.890625 35.296875 -12.953125 C 35.296875 -17.835938 32.476562 -21.53125 26.84375 -24.03125 L 15.671875 -29 C 12.296875 -30.507812 9.757812 -32.5625 8.0625 -35.15625 C 6.375 -37.75 5.53125 -40.550781 5.53125 -43.5625 C 5.53125 -48.125 7.0625 -52.046875 10.125 -55.328125 C 13.195312 -58.617188 17.613281 -60.265625 23.375 -60.265625 C 26.75 -60.265625 30.222656 -59.140625 33.796875 -56.890625 C 34.984375 -56.203125 35.796875 -55.859375 36.234375 -55.859375 C 37.046875 -55.859375 37.484375 -56.515625 37.546875 -57.828125 L 37.640625 -59.703125 L 39.421875 -59.703125 L 39.421875 -43.46875 L 37.734375 -43.46875 C 37.234375 -48.28125 35.679688 -51.828125 33.078125 -54.109375 C 30.484375 -56.398438 27.328125 -57.546875 23.609375 -57.546875 C 19.890625 -57.546875 17.007812 -56.523438 14.96875 -54.484375 C 12.9375 -52.453125 11.921875 -50.140625 11.921875 -47.546875 C 11.921875 -44.953125 12.625 -42.617188 14.03125 -40.546875 C 15.4375 -38.484375 17.519531 -36.859375 20.28125 -35.671875 L 31.546875 -30.703125 C 35.296875 -29.003906 38.125 -26.796875 40.03125 -24.078125 C 41.945312 -21.359375 42.90625 -18.429688 42.90625 -15.296875 C 42.90625 -10.859375 41.117188 -7.007812 37.546875 -3.75 C 33.984375 -0.5 29.226562 1.125 23.28125 1.125 Z M 23.28125 1.125 "/></g></g></g><g fill="#000000" fill-opacity="1"><g transform="translate(756.473987, 80.78987)"><g><path d="M 27.3125 -56.515625 L 27.3125 -2.8125 C 27.3125 -2.0625 27.75 -1.6875 28.625 -1.6875 L 36.796875 -1.6875 L 36.796875 0 L 10.140625 0 L 10.140625 -1.6875 L 18.3125 -1.6875 C 19.1875 -1.6875 19.625 -2.0625 19.625 -2.8125 L 19.625 -56.515625 L 7.515625 -56.515625 C 5.878906 -56.515625 5 -55.828125 4.875 -54.453125 L 3.46875 -43.46875 L 1.3125 -43.46875 L 1.3125 -47.875 C 1.3125 -53.382812 1.03125 -57.421875 0.46875 -59.984375 C 2.46875 -59.421875 5.941406 -59.140625 10.890625 -59.140625 L 36.046875 -59.140625 C 40.992188 -59.140625 44.46875 -59.421875 46.46875 -59.984375 C 45.90625 -57.421875 45.625 -53.382812 45.625 -47.875 L 45.625 -43.46875 L 43.46875 -43.46875 L 42.0625 -54.453125 C 41.9375 -55.828125 41.054688 -56.515625 39.421875 -56.515625 Z M 27.3125 -56.515625 "/></g></g></g><g fill="#000000" fill-opacity="1"><g transform="translate(808.762445, 80.78987)"><g><path d="M 55.296875 -59.140625 L 55.296875 -57.453125 L 50.875 -57.453125 C 50 -57.453125 49.5625 -57.078125 49.5625 -56.328125 L 49.5625 -18.3125 C 49.5625 -11.800781 47.679688 -6.929688 43.921875 -3.703125 C 40.171875 -0.484375 35.132812 1.125 28.8125 1.125 C 22.5 1.125 17.460938 -0.484375 13.703125 -3.703125 C 9.953125 -6.929688 8.078125 -11.800781 8.078125 -18.3125 L 8.078125 -56.328125 C 8.078125 -57.078125 7.640625 -57.453125 6.765625 -57.453125 L 2.34375 -57.453125 L 2.34375 -59.140625 L 21.5 -59.140625 L 21.5 -57.453125 L 17.078125 -57.453125 C 16.203125 -57.453125 15.765625 -57.078125 15.765625 -56.328125 L 15.765625 -17.65625 C 15.765625 -12.394531 17.0625 -8.492188 19.65625 -5.953125 C 22.257812 -3.421875 25.796875 -2.15625 30.265625 -2.15625 C 34.742188 -2.15625 38.546875 -3.421875 41.671875 -5.953125 C 44.804688 -8.492188 46.375 -12.613281 46.375 -18.3125 L 46.375 -56.328125 C 46.375 -57.078125 45.9375 -57.453125 45.0625 -57.453125 L 40.640625 -57.453125 L 40.640625 -59.140625 Z M 55.296875 -59.140625 "/></g></g></g><g fill="#000000" fill-opacity="1"><g transform="translate(870.813782, 80.78987)"><g><path d="M 3.28125 -57.453125 L 3.28125 -59.140625 L 27.125 -59.140625 C 35.070312 -59.140625 41.550781 -56.507812 46.5625 -51.25 C 51.570312 -46 54.078125 -38.769531 54.078125 -29.5625 C 54.078125 -20.363281 51.570312 -13.132812 46.5625 -7.875 C 41.550781 -2.625 35.070312 0 27.125 0 L 3.28125 0 L 3.28125 -1.6875 L 7.703125 -1.6875 C 8.578125 -1.6875 9.015625 -2.0625 9.015625 -2.8125 L 9.015625 -56.328125 C 9.015625 -57.078125 8.578125 -57.453125 7.703125 -57.453125 Z M 27.125 -56.515625 L 16.703125 -56.515625 L 16.703125 -2.625 L 27.125 -2.625 C 32.507812 -2.625 37.015625 -5.03125 40.640625 -9.84375 C 44.273438 -14.664062 46.09375 -21.238281 46.09375 -29.5625 C 46.09375 -37.894531 44.273438 -44.46875 40.640625 -49.28125 C 37.015625 -54.101562 32.507812 -56.515625 27.125 -56.515625 Z M 27.125 -56.515625 "/></g></g></g><g fill="#000000" fill-opacity="1"><g transform="translate(933.522271, 80.78987)"><g><path d="M 9.015625 -3 L 9.015625 -56.328125 C 9.015625 -57.078125 8.578125 -57.453125 7.703125 -57.453125 L 3.28125 -57.453125 L 3.28125 -59.140625 L 22.4375 -59.140625 L 22.4375 -57.453125 L 18.03125 -57.453125 C 17.144531 -57.453125 16.703125 -57.078125 16.703125 -56.328125 L 16.703125 -3 C 16.703125 -2.125 17.144531 -1.6875 18.03125 -1.6875 L 22.4375 -1.6875 L 22.4375 0 L 3.28125 0 L 3.28125 -1.6875 L 7.703125 -1.6875 C 8.578125 -1.6875 9.015625 -2.125 9.015625 -3 Z M 9.015625 -3 "/></g></g></g><g fill="#000000" fill-opacity="1"><g transform="translate(964.595145, 80.78987)"><g><path d="M 10.75 -7.03125 C 5.769531 -12.476562 3.28125 -19.988281 3.28125 -29.5625 C 3.28125 -39.144531 5.769531 -46.65625 10.75 -52.09375 C 15.726562 -57.539062 22.207031 -60.265625 30.1875 -60.265625 C 38.164062 -60.265625 44.640625 -57.539062 49.609375 -52.09375 C 54.585938 -46.65625 57.078125 -39.144531 57.078125 -29.5625 C 57.078125 -19.988281 54.585938 -12.476562 49.609375 -7.03125 C 44.640625 -1.59375 38.164062 1.125 30.1875 1.125 C 22.207031 1.125 15.726562 -1.59375 10.75 -7.03125 Z M 16.65625 -50.21875 C 13.0625 -45.15625 11.265625 -38.269531 11.265625 -29.5625 C 11.265625 -20.863281 13.0625 -13.976562 16.65625 -8.90625 C 20.257812 -3.84375 24.75 -1.3125 30.125 -1.3125 C 35.507812 -1.3125 40.015625 -3.84375 43.640625 -8.90625 C 47.273438 -13.976562 49.09375 -20.863281 49.09375 -29.5625 C 49.09375 -38.269531 47.273438 -45.15625 43.640625 -50.21875 C 40.015625 -55.289062 35.507812 -57.828125 30.125 -57.828125 C 24.75 -57.828125 20.257812 -55.289062 16.65625 -50.21875 Z M 16.65625 -50.21875 "/></g></g></g><path stroke-linecap="butt" transform="matrix(1.308634, -0.000000000000002597, 0.000000000000002597, 1.308634, 1052.860873, 57.125521)" fill="none" stroke-linejoin="miter" d="M -0.00114436 3.999479 L 229.114185 3.999479 " stroke="#000000" stroke-width="8" stroke-opacity="1" stroke-miterlimit="4"/></g></g></svg>